<?xml version="1.0" encoding="UTF-8" ?>
<!DOCTYPE svg PUBLIC "-//W3C//DTD SVG 1.1//EN" "http://www.w3.org/Graphics/SVG/1.1/DTD/svg11.dtd">
<svg width="763pt" height="762pt" viewBox="0 0 763 762" version="1.1" xmlns="http://www.w3.org/2000/svg">
<g id="#242424ff">
<path fill="#242424" opacity="1.00" d=" M 302.24 11.25 C 371.91 -3.49 445.79 1.64 512.51 26.67 C 546.25 39.22 578.23 56.52 607.04 78.13 C 626.43 92.47 644.04 109.04 660.58 126.55 C 631.53 151.51 602.65 176.66 573.67 201.69 C 571.52 203.42 569.67 205.61 567.21 206.89 C 546.93 185.57 523.28 167.37 497.02 154.01 C 465.42 137.79 430.38 128.36 394.91 126.47 C 352.91 124.14 310.35 132.29 272.31 150.29 C 243.88 163.60 218.16 182.42 196.37 204.98 C 166.62 176.75 136.58 148.83 106.91 120.52 C 131.27 95.19 158.86 72.92 189.22 55.17 C 224.22 34.63 262.53 19.68 302.24 11.25 M 393.77 24.62 C 393.76 39.11 394.72 53.64 393.60 68.11 C 393.16 75.96 391.91 83.78 392.20 91.66 C 396.93 91.63 401.64 91.94 406.31 92.71 C 407.45 83.80 407.42 74.79 408.26 65.85 C 408.08 64.36 409.66 63.97 410.84 64.03 C 422.24 64.66 433.44 67.00 444.55 69.50 C 445.03 65.81 446.14 62.24 446.73 58.58 C 434.57 55.38 421.86 55.45 409.51 53.53 C 408.43 50.10 409.75 46.45 409.75 42.93 C 410.15 40.74 409.54 38.02 411.26 36.33 C 425.96 36.45 440.24 40.44 454.48 43.65 C 455.24 39.73 455.41 35.73 456.02 31.79 C 451.94 30.01 447.40 29.93 443.08 29.13 C 426.73 26.86 410.28 24.83 393.77 24.62 M 326.81 29.84 C 322.22 30.96 317.40 31.39 313.07 33.40 C 318.04 49.03 322.55 64.86 325.23 81.07 C 326.40 86.96 327.12 92.98 328.92 98.72 C 333.38 97.58 337.91 96.79 342.46 96.10 C 342.07 88.25 338.65 80.81 338.36 72.92 C 342.86 71.89 347.44 71.18 352.04 70.62 C 354.01 70.41 356.58 70.25 357.83 72.15 C 362.32 78.58 365.93 85.58 370.11 92.21 C 375.06 92.88 380.14 91.69 385.14 92.33 C 381.29 83.03 375.44 74.76 370.56 66.00 C 375.23 62.62 380.63 59.08 382.08 53.10 C 383.64 46.71 383.75 39.05 379.12 33.85 C 373.60 27.71 364.93 25.78 356.99 25.61 C 346.79 25.61 336.77 27.88 326.81 29.84 M 465.03 35.48 C 463.04 45.70 460.92 55.89 458.46 66.00 C 455.63 77.61 450.80 88.62 448.02 100.23 C 453.24 102.13 458.69 103.30 463.98 105.03 C 473.96 107.95 483.49 112.36 492.34 117.84 C 494.95 114.96 497.16 111.75 499.62 108.74 C 489.64 104.29 479.17 101.06 469.06 96.95 C 467.40 96.15 465.07 95.29 465.11 93.07 C 465.43 88.46 467.62 84.26 468.80 79.84 C 469.07 78.32 470.11 76.26 472.03 77.12 C 483.21 80.04 493.63 85.22 503.98 90.14 C 506.02 87.08 508.03 84.00 509.90 80.84 C 498.82 76.03 487.57 71.59 476.11 67.79 C 475.05 67.32 473.05 66.48 473.76 64.98 C 474.90 60.63 476.17 56.25 478.13 52.19 C 479.26 49.58 482.44 50.85 484.50 51.34 C 495.12 54.98 505.25 59.86 515.31 64.81 C 516.43 65.24 517.54 66.11 518.82 65.79 C 520.31 62.96 520.74 59.74 521.58 56.69 C 520.19 55.56 518.72 54.53 517.09 53.81 C 506.59 49.07 495.72 45.27 484.90 41.38 C 478.37 39.15 471.91 36.34 465.03 35.48 M 283.29 42.52 C 288.34 57.38 294.15 71.98 299.14 86.86 C 300.61 91.07 299.61 96.24 295.77 98.84 C 290.24 102.71 283.80 105.34 277.20 106.68 C 272.04 108.00 267.41 104.16 265.26 99.79 C 258.18 86.19 252.24 72.02 245.10 58.45 C 239.45 61.02 234.13 64.26 228.68 67.22 C 234.24 75.75 239.73 84.34 245.09 93.00 C 249.13 99.59 252.37 106.71 257.25 112.75 C 259.95 116.01 263.55 119.20 268.04 119.14 C 275.45 119.11 282.39 116.08 289.15 113.37 C 295.71 110.44 302.69 107.97 308.17 103.17 C 311.65 100.17 314.35 95.75 313.85 91.00 C 312.96 81.29 308.84 72.30 306.65 62.88 C 304.20 54.28 303.11 45.26 300.01 36.87 C 294.51 39.00 288.58 39.92 283.29 42.52 M 533.64 62.89 C 529.46 72.70 524.76 82.28 519.79 91.71 C 514.13 101.92 507.34 111.48 501.99 121.86 C 506.32 124.03 510.50 126.47 514.39 129.39 C 519.23 123.14 521.57 115.32 526.64 109.23 C 531.11 111.71 535.39 114.55 539.51 117.57 C 540.77 118.67 542.44 120.03 542.22 121.90 C 541.39 129.38 539.71 136.73 538.45 144.15 C 537.77 146.33 540.14 147.32 541.47 148.51 C 544.62 150.72 547.13 153.66 550.08 156.11 C 553.09 146.63 554.08 136.69 556.23 127.01 C 561.79 127.64 567.84 128.92 573.03 126.08 C 579.69 122.39 585.58 115.21 584.26 107.14 C 582.57 96.68 574.57 88.64 566.36 82.63 C 555.94 75.30 545.07 68.52 533.64 62.89 M 208.62 80.57 C 200.45 84.52 192.75 90.17 187.97 98.02 C 184.64 103.52 183.06 110.78 186.21 116.72 C 188.88 122.18 195.01 125.57 201.07 124.94 C 209.17 124.03 216.72 119.70 224.98 119.98 C 230.02 120.24 232.86 126.38 230.56 130.66 C 227.04 137.88 219.85 142.16 213.96 147.25 C 217.39 149.49 220.94 151.55 224.11 154.14 C 233.31 148.25 241.46 139.68 244.37 128.91 C 246.06 122.91 244.79 116.13 240.72 111.36 C 237.24 107.04 231.21 105.39 225.88 106.46 C 220.48 107.48 215.22 109.12 209.91 110.49 C 207.33 111.04 204.37 111.69 201.96 110.23 C 198.89 108.14 198.39 103.52 200.68 100.66 C 205.56 93.65 214.22 91.40 221.83 88.67 C 223.04 84.88 221.86 80.28 222.71 76.20 C 217.76 76.69 213.07 78.44 208.62 80.57 Z" />
<path fill="#242424" opacity="1.00" d=" M 336.89 38.84 C 344.50 37.40 352.50 35.92 360.16 37.80 C 366.78 39.46 369.17 47.65 367.28 53.55 C 365.56 58.10 360.51 59.99 356.11 60.84 C 349.57 61.86 342.97 62.50 336.40 63.37 C 335.11 56.22 333.47 49.12 332.69 41.89 C 331.98 39.34 335.35 39.46 336.89 38.84 Z" />
<path fill="#242424" opacity="1.00" d=" M 531.59 100.56 C 535.76 93.79 539.43 86.63 544.51 80.49 C 551.46 83.80 557.86 88.25 563.58 93.40 C 566.76 96.35 569.88 100.41 569.01 105.03 C 567.96 109.91 564.29 115.00 558.98 115.49 C 554.02 115.76 549.51 113.13 545.54 110.46 C 540.92 107.11 536.23 103.87 531.59 100.56 Z" />
<path fill="#242424" opacity="1.00" d=" M 17.15 278.30 C 33.34 220.97 63.16 167.46 103.87 123.91 C 133.81 151.93 163.57 180.14 193.47 208.21 C 165.78 238.17 145.48 274.88 134.87 314.28 C 95.63 302.29 56.39 290.28 17.15 278.30 M 66.60 215.47 C 62.74 220.63 63.08 228.61 67.93 233.03 C 73.29 238.03 82.01 240.08 88.74 236.96 C 86.97 239.75 84.38 242.04 83.24 245.22 C 80.79 250.71 81.24 257.94 85.92 262.12 C 90.97 266.74 99.66 267.70 104.87 262.82 C 109.89 258.26 110.39 250.63 108.72 244.44 C 114.95 249.42 120.72 255.48 122.98 263.35 C 127.57 255.09 132.28 246.89 137.00 238.71 C 129.09 241.23 120.65 240.07 112.92 237.51 C 119.19 235.32 125.35 230.85 126.91 224.05 C 129.04 215.11 119.76 206.13 110.90 208.18 C 103.81 209.81 98.56 216.00 96.93 222.94 C 94.56 215.20 88.35 208.03 80.01 206.92 C 74.11 206.22 69.35 210.75 66.60 215.47 Z" />
<path fill="#242424" opacity="1.00" d=" M 569.93 209.98 C 600.90 183.08 631.88 156.21 662.83 129.31 C 700.50 171.27 728.27 221.91 743.97 276.03 C 705.58 291.35 667.21 306.69 628.79 321.91 C 619.06 280.41 598.49 241.59 569.93 209.98 M 665.60 225.06 C 664.07 217.90 658.43 211.54 651.11 210.16 C 642.48 208.62 633.72 217.26 635.62 225.95 C 637.12 232.69 643.11 237.32 649.35 239.53 C 641.66 242.24 633.13 243.37 625.26 240.68 C 630.08 248.89 634.82 257.16 639.39 265.51 C 641.47 258.08 646.74 252.22 652.49 247.34 C 652.73 247.28 653.20 247.17 653.44 247.12 C 651.55 253.51 652.65 261.61 658.33 265.78 C 665.85 271.39 678.49 266.48 679.83 257.07 C 681.25 250.28 677.59 243.92 673.24 239.05 C 682.13 243.09 695.65 238.49 697.61 228.10 C 698.74 219.45 692.42 208.83 682.95 208.98 C 674.39 209.83 668.08 217.25 665.60 225.06 Z" />
<path fill="#242424" opacity="1.00" d=" M 356.89 161.04 C 381.33 155.43 407.49 158.35 430.28 168.71 C 452.41 178.63 471.34 194.73 486.50 213.50 C 506.13 237.78 519.71 266.51 528.45 296.37 C 553.86 310.75 574.05 333.96 584.78 361.12 C 596.44 390.51 599.14 423.16 594.33 454.29 C 579.73 426.46 562.87 399.20 539.82 377.52 C 539.80 419.82 531.41 462.31 513.36 500.68 C 523.99 504.93 534.73 511.15 540.55 521.40 C 544.86 528.83 544.23 538.51 539.33 545.51 C 532.19 555.93 520.38 561.90 508.75 565.93 C 486.93 573.04 463.22 573.82 440.80 569.27 C 426.22 566.09 411.40 560.53 400.89 549.51 C 387.56 549.48 374.23 549.51 360.89 549.50 C 349.58 561.26 333.52 566.88 317.84 569.89 C 295.09 573.88 271.09 572.67 249.33 564.61 C 238.44 560.33 227.38 554.12 221.33 543.71 C 217.03 536.47 217.39 526.97 222.03 519.98 C 228.54 509.89 239.62 503.98 250.55 499.80 C 233.56 463.58 225.21 423.60 224.56 383.68 C 201.19 404.21 182.44 429.49 166.03 455.77 C 162.74 425.42 167.61 394.08 180.22 366.25 C 191.63 341.10 210.51 319.57 233.60 304.50 C 243.04 267.87 259.75 232.53 285.46 204.49 C 304.50 183.69 329.13 167.22 356.89 161.04 M 309.25 262.27 C 300.15 275.87 298.69 294.02 305.02 309.05 C 309.04 319.09 316.90 327.30 326.52 332.18 C 302.03 353.53 286.53 383.36 276.98 414.01 C 268.84 440.39 265.14 468.04 265.09 495.62 C 284.98 491.60 305.79 491.77 325.51 496.66 C 338.40 500.04 351.43 505.37 360.69 515.29 C 366.16 520.99 369.19 529.11 367.66 537.00 C 376.47 537.00 385.27 537.00 394.08 537.00 C 392.82 530.06 394.85 522.81 399.29 517.37 C 407.03 507.74 418.59 502.15 430.12 498.41 C 452.38 491.55 476.45 491.14 499.13 496.18 C 499.19 470.01 495.86 443.78 488.64 418.61 C 479.26 386.25 463.38 354.64 437.73 332.13 C 454.80 324.03 464.50 304.46 462.97 285.97 C 462.04 270.91 453.84 256.08 440.57 248.53 C 430.36 242.55 417.34 241.70 406.50 246.51 C 394.75 251.52 386.08 262.21 382.15 274.22 C 379.36 266.30 374.92 258.86 368.52 253.34 C 360.06 245.84 348.29 241.97 337.05 243.84 C 325.66 245.56 315.53 252.74 309.25 262.27 Z" />
<path fill="#242424" opacity="1.00" d=" M 362.09 271.12 C 365.84 270.17 369.16 272.94 370.98 275.94 C 375.16 282.80 375.80 291.21 374.96 299.04 C 374.21 304.34 372.66 309.93 368.76 313.80 C 366.54 316.10 362.74 316.88 360.00 315.05 C 355.54 312.05 353.69 306.58 352.60 301.57 C 351.23 293.96 351.60 285.82 354.73 278.67 C 356.21 275.46 358.45 272.03 362.09 271.12 Z" />
<path fill="#242424" opacity="1.00" d=" M 398.11 271.12 C 402.48 270.07 406.00 273.76 407.82 277.29 C 411.61 284.80 412.09 293.66 410.55 301.83 C 409.36 307.13 407.23 313.27 401.90 315.67 C 397.33 317.43 393.24 313.42 391.38 309.63 C 387.21 301.09 386.93 290.92 389.56 281.87 C 390.98 277.52 393.35 272.51 398.11 271.12 Z" />
<path fill="#242424" opacity="1.00" d=" M 629.76 326.06 C 668.21 310.75 706.66 295.42 745.14 280.14 C 762.20 341.82 763.11 407.83 748.13 470.02 C 747.54 470.90 747.88 473.69 746.14 472.91 C 706.39 464.38 666.69 455.61 626.97 446.92 C 637.49 407.62 638.43 365.81 629.76 326.06 M 670.30 349.60 C 667.88 356.69 669.84 364.29 672.73 370.91 C 668.25 369.73 663.65 368.72 659.55 366.48 C 656.60 364.89 654.23 362.48 651.51 360.58 C 651.66 369.43 651.59 378.29 651.65 387.15 C 657.94 382.74 665.07 379.82 672.44 377.78 C 669.66 385.36 667.24 393.85 670.21 401.76 C 672.76 409.02 680.15 414.49 687.96 413.95 C 697.89 413.23 706.58 407.27 713.16 400.13 C 722.44 390.10 733.36 381.74 744.80 374.32 C 732.81 367.35 722.15 358.29 712.87 348.02 C 706.35 340.77 696.92 335.48 686.95 336.05 C 679.24 336.47 672.45 342.26 670.30 349.60 Z" />
<path fill="#242424" opacity="1.00" d=" M 16.10 282.01 C 55.36 294.01 94.62 306.04 133.87 318.07 C 123.73 358.15 123.64 400.60 133.14 440.80 C 93.07 449.54 53.05 458.47 12.97 467.15 C -1.19 406.43 -0.21 342.20 16.10 282.01 M 49.22 346.25 C 40.01 356.37 29.46 365.32 17.63 372.23 C 28.95 379.67 39.85 387.91 49.06 397.91 C 55.83 405.19 64.79 411.29 74.99 411.88 C 84.09 412.37 92.42 404.97 93.75 396.09 C 95.27 389.07 92.57 382.24 90.35 375.71 C 97.70 377.78 104.85 380.64 111.12 385.06 C 111.08 376.13 111.16 367.21 111.29 358.29 C 108.55 360.47 106.02 362.98 102.87 364.57 C 98.79 366.69 94.27 367.66 89.86 368.81 C 93.11 361.54 94.93 352.96 91.54 345.39 C 88.62 338.13 80.85 333.36 73.06 333.92 C 63.78 334.37 55.28 339.39 49.22 346.25 Z" />
<path fill="#242424" opacity="1.00" d=" M 361.61 338.30 C 375.08 338.20 388.55 338.28 402.02 338.26 C 394.33 357.25 386.76 376.30 378.99 395.26 C 373.11 376.30 367.45 357.27 361.61 338.30 Z" />
<path fill="#242424" opacity="1.00" d=" M 14.16 472.18 C 54.21 463.14 94.29 454.24 134.36 445.28 C 143.42 479.91 159.84 512.64 182.44 540.42 C 152.08 568.12 121.47 595.55 90.95 623.08 C 54.30 579.49 28.05 527.38 14.16 472.18 M 81.79 500.80 C 80.09 507.69 83.06 514.92 88.13 519.63 C 81.05 518.29 73.30 520.00 67.94 524.96 C 64.78 527.82 63.57 532.47 64.66 536.56 C 65.89 541.23 68.66 545.57 72.57 548.46 C 76.64 551.44 82.40 551.22 86.64 548.70 C 92.07 545.54 95.95 540.09 97.40 534.00 C 99.04 540.74 104.22 546.94 111.17 548.46 C 120.23 550.50 129.45 541.09 127.34 532.08 C 125.90 525.30 119.40 521.09 113.06 519.55 C 120.38 516.48 128.45 514.47 136.37 516.18 C 131.32 508.22 126.35 500.21 121.51 492.12 C 119.76 500.28 114.71 507.24 108.54 512.69 C 110.14 505.66 108.43 497.04 102.11 492.85 C 94.91 488.12 83.86 492.45 81.79 500.80 Z" />
<path fill="#242424" opacity="1.00" d=" M 625.73 451.36 C 665.84 460.23 705.95 469.12 746.06 478.01 C 732.39 529.13 707.97 577.36 674.64 618.47 C 641.81 593.77 609.00 569.06 576.23 544.29 C 598.93 517.19 615.95 485.34 625.73 451.36 M 659.52 495.54 C 653.94 500.07 652.73 507.98 653.88 514.72 C 647.89 509.21 642.80 502.37 641.29 494.20 C 636.42 502.29 631.48 510.33 626.39 518.28 C 634.21 516.51 642.14 518.59 649.41 521.47 C 643.57 523.36 637.40 526.77 635.53 533.04 C 632.47 542.19 641.68 552.46 651.09 550.60 C 658.14 549.21 663.17 542.81 665.05 536.16 C 666.97 544.45 673.99 552.61 682.99 552.75 C 689.41 552.75 694.09 547.32 696.58 541.93 C 698.77 537.50 698.72 531.67 695.26 527.90 C 689.97 522.20 681.58 520.29 674.10 521.73 C 679.63 516.89 682.61 508.90 680.25 501.76 C 677.38 493.79 666.26 490.16 659.52 495.54 Z" />
<path fill="#242424" opacity="1.00" d=" M 95.84 624.86 C 125.73 598.02 155.60 571.16 185.38 544.22 C 205.61 568.08 229.99 588.46 257.39 603.60 C 292.07 622.91 331.35 633.84 371.01 635.30 C 414.83 637.06 459.08 627.27 497.99 607.02 C 526.62 592.16 552.44 571.86 573.49 547.41 C 606.37 572.09 639.17 596.89 671.96 621.70 C 631.93 670.02 579.79 708.28 521.44 731.45 C 441.81 763.66 351.05 767.22 269.06 741.69 C 201.76 720.91 140.54 680.90 94.69 627.42 C 93.42 626.45 95.34 625.56 95.84 624.86 M 182.21 590.55 C 174.46 601.85 166.57 613.08 157.64 623.50 C 152.01 630.07 145.99 636.32 140.63 643.13 C 145.07 647.18 150.11 650.51 154.51 654.63 C 158.22 650.45 160.34 645.16 163.83 640.83 C 164.56 639.39 165.99 640.42 166.88 641.03 C 173.80 645.76 180.25 651.26 187.72 655.13 C 195.13 658.95 204.47 660.17 212.01 656.02 C 221.58 650.52 226.84 638.09 223.38 627.47 C 221.34 619.63 215.74 613.14 208.74 609.24 C 199.37 603.78 190.74 597.20 182.21 590.55 M 581.10 593.17 C 578.69 595.56 575.75 597.28 572.95 599.15 C 581.92 612.49 593.22 624.15 601.84 637.76 C 580.27 634.41 559.17 628.28 538.89 620.24 C 535.51 622.86 531.94 625.22 528.25 627.37 C 532.56 634.60 536.47 642.06 540.58 649.41 C 546.86 660.57 551.45 672.56 556.84 684.16 C 557.43 685.24 557.84 686.54 558.91 687.29 C 563.64 685.08 568.06 682.23 572.82 680.05 C 565.75 665.49 556.43 652.11 549.21 637.62 C 569.76 644.11 590.63 649.78 611.98 652.90 C 615.31 653.70 617.24 650.35 619.64 648.76 C 621.62 647.01 624.52 646.19 625.92 643.87 C 624.01 640.05 620.84 637.05 618.29 633.66 C 609.69 623.16 601.29 612.50 593.41 601.45 C 590.61 597.88 588.21 593.95 584.99 590.74 C 583.32 590.79 582.28 592.21 581.10 593.17 M 218.51 671.44 C 215.65 676.28 212.79 681.13 210.30 686.17 C 209.17 687.85 211.61 688.51 212.66 689.17 C 227.43 696.19 242.89 701.59 257.85 708.18 C 259.49 708.80 261.08 709.97 262.91 709.84 C 264.93 706.49 267.16 703.14 268.32 699.37 C 256.78 696.16 245.15 692.95 234.29 687.80 C 232.42 686.80 229.68 685.51 230.28 682.92 C 231.01 679.18 233.08 675.89 234.47 672.39 C 235.29 670.92 235.67 669.01 237.18 668.08 C 240.01 668.13 242.48 669.91 245.11 670.82 C 253.53 674.10 261.93 677.41 270.23 680.97 C 271.81 677.53 273.40 674.10 274.81 670.59 C 264.74 667.53 254.68 664.38 245.03 660.15 C 243.42 659.45 240.13 658.56 241.47 656.17 C 243.24 652.16 244.75 647.97 247.04 644.22 C 248.10 642.35 250.46 642.99 252.09 643.61 C 261.71 647.49 270.90 652.55 280.97 655.26 C 281.54 651.93 282.95 648.43 282.26 645.10 C 277.58 642.74 272.35 641.72 267.52 639.71 C 257.96 636.34 249.05 631.46 239.83 627.30 C 233.26 642.26 227.01 657.44 218.51 671.44 M 505.24 636.84 C 510.35 650.04 517.64 662.31 522.18 675.75 C 525.31 683.51 527.18 691.79 530.93 699.29 C 533.51 698.65 535.81 697.25 538.27 696.27 C 541.17 695.05 544.31 694.32 546.91 692.47 C 542.97 683.52 538.00 675.07 533.78 666.25 C 528.19 654.75 524.05 642.60 518.31 631.18 C 514.12 633.45 509.66 635.10 505.24 636.84 M 482.08 645.97 C 486.53 660.88 492.15 675.40 496.83 690.24 C 498.05 693.83 498.20 698.40 495.17 701.15 C 491.76 704.17 487.31 705.60 483.04 706.89 C 478.02 708.19 472.67 709.54 467.51 708.31 C 462.75 706.82 460.92 701.53 460.13 697.09 C 457.43 682.81 454.64 668.54 451.64 654.32 C 446.99 655.07 442.34 655.88 437.75 656.90 C 440.38 668.56 442.79 680.27 445.07 692.00 C 446.57 699.64 446.73 708.00 451.40 714.58 C 453.93 718.33 458.65 719.57 462.94 719.73 C 471.85 720.08 480.62 717.89 489.10 715.36 C 495.55 713.26 502.21 710.95 507.39 706.39 C 510.61 703.53 513.22 699.44 512.80 694.97 C 512.33 688.23 509.17 682.12 507.09 675.80 C 502.83 664.37 499.94 652.48 495.43 641.14 C 491.09 643.04 486.50 644.28 482.08 645.97 M 292.62 648.20 C 290.16 658.89 287.38 669.51 284.42 680.08 C 281.29 691.04 276.89 701.62 273.99 712.64 C 279.23 714.00 284.37 715.70 289.62 717.02 C 293.42 701.79 296.62 686.40 300.65 671.23 C 300.87 671.16 301.32 671.03 301.54 670.97 C 311.50 689.63 322.48 707.81 335.34 724.63 C 336.33 726.21 338.37 725.75 339.93 726.00 C 343.44 726.12 346.89 726.77 350.37 727.18 C 352.27 713.56 352.38 699.75 354.15 686.11 C 354.97 677.35 356.63 668.68 356.99 659.89 C 352.48 658.96 347.84 658.92 343.30 658.17 C 340.53 674.01 340.70 690.26 337.77 706.09 C 326.65 691.40 317.25 675.43 309.08 658.93 C 307.56 656.15 306.73 652.94 304.69 650.49 C 300.65 649.79 296.59 649.21 292.62 648.20 M 373.40 670.43 C 363.52 680.57 360.02 696.84 365.96 709.86 C 370.90 720.28 381.55 727.46 392.90 728.94 C 405.31 730.51 418.45 728.27 429.00 721.36 C 432.62 722.38 436.30 723.79 440.13 723.30 C 439.78 717.77 437.93 712.50 437.09 707.04 C 435.94 701.78 435.91 696.34 434.74 691.09 C 429.48 691.99 424.15 692.27 418.85 692.81 C 419.55 699.20 421.34 705.40 422.40 711.73 C 414.81 716.12 405.88 718.68 397.09 717.51 C 386.04 715.93 376.72 705.37 377.62 694.04 C 377.86 682.41 387.18 671.31 399.05 670.50 C 407.75 669.29 414.79 675.23 421.14 680.22 C 424.01 677.35 426.54 674.16 428.73 670.75 C 414.93 655.13 387.42 655.00 373.40 670.43 Z" />
<path fill="#242424" opacity="1.00" d=" M 170.51 631.57 C 176.17 623.61 181.65 615.51 187.87 607.97 C 192.53 610.60 197.00 613.56 201.55 616.38 C 205.44 618.81 208.96 622.29 210.26 626.80 C 213.35 635.78 205.85 647.34 196.00 646.77 C 191.84 646.66 188.10 644.57 184.74 642.30 C 179.82 638.97 174.79 635.73 170.51 631.57 Z" />
</g>
<g id="#ffffffff">
<path fill="#ffffff" opacity="1.00" d=" M 393.77 24.62 C 410.28 24.83 426.73 26.86 443.08 29.13 C 447.40 29.93 451.94 30.01 456.02 31.79 C 455.41 35.73 455.24 39.73 454.48 43.65 C 440.24 40.44 425.96 36.45 411.26 36.33 C 409.54 38.02 410.15 40.74 409.75 42.93 C 409.75 46.45 408.43 50.10 409.51 53.53 C 421.86 55.45 434.57 55.38 446.73 58.58 C 446.14 62.24 445.03 65.81 444.55 69.50 C 433.44 67.00 422.24 64.66 410.84 64.03 C 409.66 63.97 408.08 64.36 408.26 65.85 C 407.42 74.79 407.45 83.80 406.31 92.71 C 401.64 91.94 396.93 91.63 392.20 91.66 C 391.91 83.78 393.16 75.96 393.60 68.11 C 394.72 53.64 393.76 39.11 393.77 24.62 Z" />
<path fill="#ffffff" opacity="1.00" d=" M 326.81 29.84 C 336.77 27.88 346.79 25.61 356.99 25.61 C 364.93 25.78 373.60 27.71 379.12 33.85 C 383.75 39.05 383.64 46.71 382.08 53.10 C 380.63 59.08 375.23 62.62 370.56 66.00 C 375.44 74.76 381.29 83.03 385.14 92.33 C 380.14 91.69 375.06 92.88 370.11 92.21 C 365.93 85.58 362.32 78.58 357.83 72.15 C 356.58 70.25 354.01 70.41 352.04 70.62 C 347.44 71.18 342.86 71.89 338.36 72.92 C 338.65 80.81 342.07 88.25 342.46 96.10 C 337.91 96.79 333.38 97.58 328.92 98.72 C 327.12 92.98 326.40 86.96 325.23 81.07 C 322.55 64.86 318.04 49.03 313.07 33.40 C 317.40 31.39 322.22 30.96 326.81 29.84 M 336.89 38.84 C 335.35 39.46 331.98 39.34 332.69 41.89 C 333.47 49.12 335.11 56.22 336.40 63.37 C 342.97 62.50 349.57 61.86 356.11 60.84 C 360.51 59.99 365.56 58.10 367.28 53.55 C 369.17 47.65 366.78 39.46 360.16 37.80 C 352.50 35.92 344.50 37.40 336.89 38.84 Z" />
<path fill="#ffffff" opacity="1.00" d=" M 465.03 35.48 C 471.91 36.34 478.37 39.15 484.90 41.38 C 495.72 45.27 506.59 49.07 517.09 53.81 C 518.72 54.53 520.19 55.56 521.58 56.69 C 520.74 59.74 520.31 62.96 518.82 65.79 C 517.54 66.11 516.43 65.24 515.31 64.81 C 505.25 59.86 495.12 54.98 484.50 51.34 C 482.44 50.85 479.26 49.58 478.13 52.19 C 476.17 56.25 474.90 60.63 473.76 64.98 C 473.05 66.48 475.05 67.32 476.11 67.79 C 487.57 71.59 498.82 76.03 509.90 80.84 C 508.03 84.00 506.02 87.08 503.98 90.14 C 493.63 85.22 483.21 80.04 472.03 77.12 C 470.11 76.26 469.07 78.32 468.80 79.84 C 467.62 84.26 465.43 88.46 465.11 93.07 C 465.07 95.29 467.40 96.15 469.06 96.95 C 479.17 101.06 489.64 104.29 499.62 108.74 C 497.16 111.75 494.95 114.96 492.34 117.84 C 483.49 112.36 473.96 107.95 463.98 105.03 C 458.69 103.30 453.24 102.13 448.02 100.23 C 450.80 88.62 455.63 77.61 458.46 66.00 C 460.92 55.89 463.04 45.70 465.03 35.48 Z" />
<path fill="#ffffff" opacity="1.00" d=" M 283.29 42.52 C 288.58 39.92 294.51 39.00 300.01 36.87 C 303.11 45.26 304.20 54.28 306.65 62.88 C 308.84 72.30 312.96 81.29 313.85 91.00 C 314.35 95.75 311.65 100.17 308.17 103.17 C 302.69 107.97 295.71 110.44 289.15 113.37 C 282.39 116.08 275.45 119.11 268.04 119.14 C 263.55 119.20 259.95 116.01 257.25 112.75 C 252.37 106.71 249.13 99.59 245.09 93.00 C 239.73 84.34 234.24 75.75 228.68 67.22 C 234.13 64.26 239.45 61.02 245.10 58.45 C 252.24 72.02 258.18 86.19 265.26 99.79 C 267.41 104.16 272.04 108.00 277.20 106.68 C 283.80 105.34 290.24 102.71 295.77 98.84 C 299.61 96.24 300.61 91.07 299.14 86.86 C 294.15 71.98 288.34 57.38 283.29 42.52 Z" />
<path fill="#ffffff" opacity="1.00" d=" M 533.64 62.89 C 545.07 68.52 555.94 75.30 566.36 82.63 C 574.57 88.64 582.57 96.68 584.26 107.14 C 585.58 115.21 579.69 122.39 573.03 126.08 C 567.84 128.92 561.79 127.64 556.23 127.01 C 554.08 136.69 553.09 146.63 550.08 156.11 C 547.13 153.66 544.62 150.72 541.47 148.51 C 540.14 147.32 537.77 146.33 538.45 144.15 C 539.71 136.73 541.39 129.38 542.22 121.90 C 542.44 120.03 540.77 118.67 539.51 117.57 C 535.39 114.55 531.11 111.71 526.64 109.23 C 521.57 115.32 519.23 123.14 514.39 129.39 C 510.50 126.47 506.32 124.03 501.99 121.86 C 507.34 111.48 514.13 101.92 519.79 91.71 C 524.76 82.28 529.46 72.70 533.64 62.89 M 531.59 100.56 C 536.23 103.87 540.92 107.11 545.54 110.46 C 549.51 113.13 554.02 115.76 558.98 115.49 C 564.29 115.00 567.96 109.91 569.01 105.03 C 569.88 100.41 566.76 96.35 563.58 93.40 C 557.86 88.25 551.46 83.80 544.51 80.49 C 539.43 86.63 535.76 93.79 531.59 100.56 Z" />
<path fill="#ffffff" opacity="1.00" d=" M 208.62 80.57 C 213.07 78.44 217.76 76.69 222.71 76.20 C 221.86 80.28 223.04 84.88 221.83 88.67 C 214.22 91.40 205.56 93.65 200.68 100.66 C 198.39 103.52 198.89 108.14 201.96 110.23 C 204.37 111.69 207.33 111.04 209.91 110.49 C 215.22 109.12 220.48 107.48 225.88 106.46 C 231.21 105.39 237.24 107.04 240.72 111.36 C 244.79 116.13 246.06 122.91 244.37 128.91 C 241.46 139.68 233.31 148.25 224.11 154.14 C 220.94 151.55 217.39 149.49 213.96 147.25 C 219.85 142.16 227.04 137.88 230.56 130.66 C 232.86 126.38 230.02 120.24 224.98 119.98 C 216.72 119.70 209.17 124.03 201.07 124.94 C 195.01 125.57 188.88 122.18 186.21 116.72 C 183.06 110.78 184.64 103.52 187.97 98.02 C 192.75 90.17 200.45 84.52 208.62 80.57 Z" />
<path fill="#ffffff" opacity="1.00" d=" M 66.60 215.47 C 69.35 210.75 74.11 206.22 80.01 206.92 C 88.35 208.03 94.56 215.20 96.93 222.94 C 98.56 216.00 103.81 209.81 110.90 208.18 C 119.76 206.13 129.04 215.11 126.91 224.05 C 125.35 230.85 119.19 235.32 112.92 237.51 C 120.65 240.07 129.09 241.23 137.00 238.71 C 132.28 246.89 127.57 255.09 122.98 263.35 C 120.72 255.48 114.95 249.42 108.72 244.44 C 110.39 250.63 109.89 258.26 104.87 262.82 C 99.66 267.70 90.97 266.74 85.92 262.12 C 81.24 257.94 80.79 250.71 83.24 245.22 C 84.38 242.04 86.97 239.75 88.74 236.96 C 82.01 240.08 73.29 238.03 67.93 233.03 C 63.08 228.61 62.74 220.63 66.60 215.47 Z" />
<path fill="#ffffff" opacity="1.00" d=" M 665.60 225.06 C 668.08 217.25 674.39 209.83 682.95 208.98 C 692.42 208.83 698.74 219.45 697.61 228.10 C 695.65 238.49 682.13 243.09 673.24 239.05 C 677.59 243.92 681.25 250.28 679.83 257.07 C 678.49 266.48 665.85 271.39 658.33 265.78 C 652.65 261.61 651.55 253.51 653.44 247.12 C 653.20 247.17 652.73 247.28 652.49 247.34 C 646.74 252.22 641.47 258.08 639.39 265.51 C 634.82 257.16 630.08 248.89 625.26 240.68 C 633.13 243.37 641.66 242.24 649.35 239.53 C 643.11 237.32 637.12 232.69 635.62 225.95 C 633.72 217.26 642.48 208.62 651.11 210.16 C 658.43 211.54 664.07 217.90 665.60 225.06 Z" />
<path fill="#ffffff" opacity="1.00" d=" M 309.25 262.27 C 315.53 252.74 325.66 245.56 337.05 243.84 C 348.29 241.97 360.06 245.84 368.52 253.34 C 374.92 258.86 379.36 266.30 382.15 274.22 C 386.08 262.21 394.75 251.52 406.50 246.51 C 417.34 241.70 430.36 242.55 440.57 248.53 C 453.84 256.08 462.04 270.91 462.97 285.97 C 464.50 304.46 454.80 324.03 437.73 332.13 C 463.38 354.64 479.26 386.25 488.64 418.61 C 495.86 443.78 499.19 470.01 499.13 496.18 C 476.45 491.14 452.38 491.55 430.12 498.41 C 418.59 502.15 407.03 507.74 399.29 517.37 C 394.85 522.81 392.82 530.06 394.08 537.00 C 385.27 537.00 376.47 537.00 367.66 537.00 C 369.19 529.11 366.16 520.99 360.69 515.29 C 351.43 505.37 338.40 500.04 325.51 496.66 C 305.79 491.77 284.98 491.60 265.09 495.62 C 265.14 468.04 268.84 440.39 276.98 414.01 C 286.53 383.36 302.03 353.53 326.52 332.18 C 316.90 327.30 309.04 319.09 305.02 309.05 C 298.69 294.02 300.15 275.87 309.25 262.27 M 362.09 271.12 C 358.45 272.03 356.21 275.46 354.73 278.67 C 351.60 285.82 351.23 293.96 352.60 301.57 C 353.69 306.58 355.54 312.05 360.00 315.05 C 362.74 316.88 366.54 316.10 368.76 313.80 C 372.66 309.93 374.21 304.34 374.96 299.04 C 375.80 291.21 375.16 282.80 370.98 275.94 C 369.16 272.94 365.84 270.17 362.09 271.12 M 398.11 271.12 C 393.35 272.51 390.98 277.52 389.56 281.87 C 386.93 290.92 387.21 301.09 391.38 309.63 C 393.24 313.42 397.33 317.43 401.90 315.67 C 407.23 313.27 409.36 307.13 410.55 301.83 C 412.09 293.66 411.61 284.80 407.82 277.29 C 406.00 273.76 402.48 270.07 398.11 271.12 M 381.40 305.92 C 381.86 305.96 382.78 306.04 383.24 306.08 C 383.80 305.03 383.66 304.10 382.81 303.29 C 381.42 302.85 380.85 304.97 381.40 305.92 M 361.61 338.30 C 367.45 357.27 373.11 376.30 378.99 395.26 C 386.76 376.30 394.33 357.25 402.02 338.26 C 388.55 338.28 375.08 338.20 361.61 338.30 Z" />
<path fill="#ffffff" opacity="1.00" d=" M 49.22 346.25 C 55.28 339.39 63.78 334.37 73.06 333.92 C 80.85 333.36 88.62 338.13 91.54 345.39 C 94.93 352.96 93.11 361.54 89.86 368.81 C 94.27 367.66 98.79 366.69 102.87 364.57 C 106.02 362.98 108.55 360.47 111.29 358.29 C 111.16 367.21 111.08 376.13 111.12 385.06 C 104.85 380.64 97.70 377.78 90.35 375.71 C 92.57 382.24 95.27 389.07 93.75 396.09 C 92.42 404.97 84.09 412.37 74.99 411.88 C 64.79 411.29 55.83 405.19 49.06 397.91 C 39.85 387.91 28.95 379.67 17.63 372.23 C 29.46 365.32 40.01 356.37 49.22 346.25 Z" />
<path fill="#ffffff" opacity="1.00" d=" M 670.30 349.60 C 672.45 342.26 679.24 336.47 686.95 336.05 C 696.92 335.48 706.35 340.77 712.87 348.02 C 722.15 358.29 732.81 367.35 744.80 374.32 C 733.36 381.74 722.44 390.10 713.16 400.13 C 706.58 407.27 697.89 413.23 687.96 413.95 C 680.15 414.49 672.76 409.02 670.21 401.76 C 667.24 393.85 669.66 385.36 672.44 377.78 C 665.07 379.82 657.94 382.74 651.65 387.15 C 651.59 378.29 651.66 369.43 651.51 360.58 C 654.23 362.48 656.60 364.89 659.55 366.48 C 663.65 368.72 668.25 369.73 672.73 370.91 C 669.84 364.29 667.88 356.69 670.30 349.60 Z" />
<path fill="#ffffff" opacity="1.00" d=" M 81.79 500.80 C 83.86 492.45 94.91 488.12 102.11 492.85 C 108.43 497.04 110.14 505.66 108.54 512.69 C 114.71 507.24 119.76 500.28 121.51 492.12 C 126.35 500.21 131.32 508.22 136.37 516.18 C 128.45 514.47 120.38 516.48 113.06 519.55 C 119.40 521.09 125.90 525.30 127.34 532.08 C 129.45 541.09 120.23 550.50 111.17 548.46 C 104.22 546.94 99.04 540.74 97.40 534.00 C 95.95 540.09 92.07 545.54 86.64 548.70 C 82.40 551.22 76.64 551.44 72.57 548.46 C 68.66 545.57 65.89 541.23 64.66 536.56 C 63.57 532.47 64.78 527.82 67.94 524.96 C 73.30 520.00 81.05 518.29 88.13 519.63 C 83.06 514.92 80.09 507.69 81.79 500.80 Z" />
<path fill="#ffffff" opacity="1.00" d=" M 659.52 495.54 C 666.26 490.16 677.38 493.79 680.25 501.76 C 682.61 508.90 679.63 516.89 674.10 521.73 C 681.58 520.29 689.97 522.20 695.26 527.90 C 698.72 531.67 698.77 537.50 696.58 541.93 C 694.09 547.32 689.41 552.75 682.99 552.75 C 673.99 552.61 666.97 544.45 665.05 536.16 C 663.17 542.81 658.14 549.21 651.09 550.60 C 641.68 552.46 632.47 542.19 635.53 533.04 C 637.40 526.77 643.57 523.36 649.41 521.47 C 642.14 518.59 634.21 516.51 626.39 518.28 C 631.48 510.33 636.42 502.29 641.29 494.20 C 642.80 502.37 647.89 509.21 653.88 514.72 C 652.73 507.98 653.94 500.07 659.52 495.54 Z" />
<path fill="#ffffff" opacity="1.00" d=" M 182.21 590.55 C 190.74 597.20 199.37 603.78 208.74 609.24 C 215.74 613.14 221.34 619.63 223.38 627.47 C 226.84 638.09 221.58 650.52 212.01 656.02 C 204.47 660.17 195.13 658.95 187.72 655.13 C 180.25 651.26 173.80 645.76 166.88 641.03 C 165.99 640.42 164.56 639.39 163.83 640.83 C 160.34 645.16 158.22 650.45 154.51 654.63 C 150.11 650.51 145.07 647.18 140.63 643.13 C 145.99 636.32 152.01 630.07 157.64 623.50 C 166.57 613.08 174.46 601.85 182.21 590.55 M 170.51 631.57 C 174.79 635.73 179.82 638.97 184.74 642.30 C 188.10 644.57 191.84 646.66 196.00 646.77 C 205.85 647.34 213.35 635.78 210.26 626.80 C 208.96 622.29 205.44 618.81 201.55 616.38 C 197.00 613.56 192.53 610.60 187.87 607.97 C 181.65 615.51 176.17 623.61 170.51 631.57 Z" />
<path fill="#ffffff" opacity="1.00" d=" M 581.10 593.17 C 582.28 592.21 583.32 590.79 584.99 590.74 C 588.21 593.95 590.61 597.88 593.41 601.45 C 601.29 612.50 609.69 623.16 618.29 633.66 C 620.84 637.05 624.01 640.05 625.92 643.87 C 624.52 646.19 621.62 647.01 619.64 648.76 C 617.24 650.35 615.31 653.70 611.98 652.90 C 590.63 649.78 569.76 644.11 549.21 637.62 C 556.43 652.11 565.75 665.49 572.82 680.05 C 568.06 682.23 563.64 685.08 558.91 687.29 C 557.84 686.54 557.43 685.24 556.84 684.16 C 551.45 672.56 546.86 660.57 540.58 649.41 C 536.47 642.06 532.56 634.60 528.25 627.37 C 531.94 625.22 535.51 622.86 538.89 620.24 C 559.17 628.28 580.27 634.41 601.84 637.76 C 593.22 624.15 581.92 612.49 572.95 599.15 C 575.75 597.28 578.69 595.56 581.10 593.17 Z" />
<path fill="#ffffff" opacity="1.00" d=" M 218.51 671.44 C 227.01 657.44 233.26 642.26 239.83 627.30 C 249.05 631.46 257.96 636.34 267.52 639.71 C 272.35 641.72 277.58 642.74 282.26 645.10 C 282.95 648.43 281.54 651.93 280.97 655.26 C 270.90 652.55 261.71 647.49 252.09 643.61 C 250.46 642.99 248.10 642.35 247.04 644.22 C 244.75 647.97 243.24 652.16 241.47 656.17 C 240.13 658.56 243.42 659.45 245.03 660.15 C 254.68 664.38 264.74 667.53 274.81 670.59 C 273.40 674.10 271.81 677.53 270.23 680.97 C 261.93 677.41 253.53 674.10 245.11 670.82 C 242.48 669.91 240.01 668.13 237.18 668.08 C 235.67 669.01 235.29 670.92 234.47 672.39 C 233.08 675.89 231.01 679.18 230.28 682.92 C 229.68 685.51 232.42 686.80 234.29 687.80 C 245.15 692.95 256.78 696.16 268.32 699.37 C 267.16 703.14 264.93 706.49 262.91 709.84 C 261.08 709.97 259.49 708.80 257.85 708.18 C 242.89 701.59 227.43 696.19 212.66 689.17 C 211.61 688.51 209.17 687.85 210.30 686.17 C 212.79 681.13 215.65 676.28 218.51 671.44 Z" />
<path fill="#ffffff" opacity="1.00" d=" M 505.24 636.84 C 509.66 635.10 514.12 633.45 518.31 631.18 C 524.05 642.60 528.19 654.75 533.78 666.25 C 538.00 675.07 542.97 683.52 546.91 692.47 C 544.31 694.32 541.17 695.05 538.27 696.27 C 535.81 697.25 533.51 698.65 530.93 699.29 C 527.18 691.79 525.31 683.51 522.18 675.75 C 517.64 662.31 510.35 650.04 505.24 636.84 Z" />
<path fill="#ffffff" opacity="1.00" d=" M 482.08 645.97 C 486.50 644.28 491.09 643.04 495.43 641.14 C 499.94 652.48 502.83 664.37 507.09 675.80 C 509.17 682.12 512.33 688.23 512.80 694.97 C 513.22 699.44 510.61 703.53 507.39 706.39 C 502.21 710.95 495.55 713.26 489.10 715.36 C 480.62 717.89 471.85 720.08 462.94 719.73 C 458.65 719.57 453.93 718.33 451.40 714.58 C 446.73 708.00 446.57 699.64 445.07 692.00 C 442.79 680.27 440.38 668.56 437.75 656.90 C 442.34 655.88 446.99 655.07 451.64 654.32 C 454.64 668.54 457.43 682.81 460.13 697.09 C 460.92 701.53 462.75 706.82 467.51 708.31 C 472.67 709.54 478.02 708.19 483.04 706.89 C 487.31 705.60 491.76 704.17 495.17 701.15 C 498.20 698.40 498.05 693.83 496.83 690.24 C 492.15 675.40 486.53 660.88 482.08 645.97 Z" />
<path fill="#ffffff" opacity="1.00" d=" M 292.62 648.20 C 296.59 649.21 300.65 649.79 304.69 650.49 C 306.73 652.94 307.56 656.15 309.08 658.93 C 317.25 675.43 326.65 691.40 337.77 706.09 C 340.70 690.26 340.53 674.01 343.30 658.17 C 347.84 658.92 352.48 658.96 356.99 659.89 C 356.63 668.68 354.97 677.35 354.15 686.11 C 352.38 699.75 352.27 713.56 350.37 727.18 C 346.89 726.77 343.44 726.12 339.93 726.00 C 338.37 725.75 336.33 726.21 335.34 724.63 C 322.48 707.81 311.50 689.63 301.54 670.97 C 301.32 671.03 300.87 671.16 300.65 671.23 C 296.62 686.40 293.42 701.79 289.62 717.02 C 284.37 715.70 279.23 714.00 273.99 712.64 C 276.89 701.62 281.29 691.04 284.42 680.08 C 287.38 669.51 290.16 658.89 292.62 648.20 Z" />
<path fill="#ffffff" opacity="1.00" d=" M 373.40 670.43 C 387.42 655.00 414.93 655.13 428.73 670.75 C 426.54 674.16 424.01 677.35 421.14 680.22 C 414.79 675.23 407.75 669.29 399.05 670.50 C 387.18 671.31 377.86 682.41 377.62 694.04 C 376.72 705.37 386.04 715.93 397.09 717.51 C 405.88 718.68 414.81 716.12 422.40 711.73 C 421.34 705.40 419.55 699.20 418.85 692.81 C 424.15 692.27 429.48 691.99 434.74 691.09 C 435.91 696.34 435.94 701.78 437.09 707.04 C 437.93 712.50 439.78 717.77 440.13 723.30 C 436.30 723.79 432.62 722.38 429.00 721.36 C 418.45 728.27 405.31 730.51 392.90 728.94 C 381.55 727.46 370.90 720.28 365.96 709.86 C 360.02 696.84 363.52 680.57 373.40 670.43 Z" />
</g>
</svg>
