<?xml version="1.0" encoding="utf-8"?>
<!-- Generator: Adobe Illustrator 21.0.0, SVG Export Plug-In . SVG Version: 6.00 Build 0)  -->
<svg version="1.1" id="Capa_1" xmlns="http://www.w3.org/2000/svg" xmlns:xlink="http://www.w3.org/1999/xlink" x="0px" y="0px"
	 viewBox="0 0 595.3 841.9" style="enable-background:new 0 0 595.3 841.9;" xml:space="preserve">
<style type="text/css">
	.st0{fill:#FFFFFF;}
	.st1{fill:#020203;stroke:#020203;stroke-width:0.5;stroke-miterlimit:10;}
	.st2{fill:#020203;}
	.st3{fill:none;stroke:#020203;stroke-width:6;stroke-miterlimit:10;}
	.st4{fill:none;}
</style>
<g>
	<path class="st0" d="M357,480.5c0.6-5,0.8-10.2,0.8-15.4c0-34.8-12.5-65.1-31-80.7c7.5-3.6,12.7-11.7,12.7-21.1
		c0-12.8-9.6-23.1-21.4-23.1c-9.1,0-16.9,6.2-20,14.8c-3.1-8.7-10.9-14.8-20-14.8c-11.8,0-21.4,10.3-21.4,23.1
		c0,9.4,5.2,17.5,12.7,21.1c-18.5,15.7-31,45.9-31,80.7c0,5.3,0.3,10.4,0.8,15.4c-1.9-2.9-3.7-5.9-5.4-9l0.8,11.9l62.9,5.3l63.7-1.5
		l0.9-14.7C360.4,475.3,358.7,478,357,480.5z M298,373c-0.2,0-0.4,0-0.6,0c0.2-0.5,0.4-1,0.6-1.5c0.2,0.5,0.4,1,0.6,1.5
		C298.4,373,298.2,373,298,373z"/>
	<g>
		<path class="st1" d="M373.3,407.9c0-58.2-33.8-105.5-75.4-105.5s-75.4,47.2-75.4,105.5c0,27.4,7.5,52.4,19.8,71.2
			c-0.5-4.9-0.8-9.9-0.8-15c0-33.8,11.8-63.2,29.3-78.4c-7.1-3.5-12-11.3-12-20.5c0-12.4,9.1-22.4,20.2-22.4c8.6,0,16,6,18.9,14.4
			c2.9-8.4,10.3-14.4,18.9-14.4c11.2,0,20.2,10,20.2,22.4c0,9.1-4.9,17-12,20.5c17.5,15.2,29.3,44.6,29.3,78.4
			c0,5.1-0.3,10.1-0.8,15C365.8,460.3,373.3,435.3,373.3,407.9z"/>
	</g>
	<ellipse class="st2" cx="255.2" cy="481.8" rx="35.9" ry="19"/>
	<ellipse class="st2" cx="339.4" cy="481.8" rx="35.9" ry="19"/>
	<line class="st3" x1="275" y1="487" x2="319.3" y2="487"/>
	<polygon class="st2" points="288.1,388.6 307.4,388.6 296.4,415.9 	"/>
	<ellipse class="st2" cx="289" cy="367.1" rx="5.6" ry="10.8"/>
	<ellipse class="st2" cx="306.3" cy="367.1" rx="5.6" ry="10.8"/>
	<path class="st2" d="M239.3,365.6C185.8,389,194.2,445,194.2,445s23.8-41.4,52.3-49.1C275,388.1,239.3,365.6,239.3,365.6z"/>
	<path class="st2" d="M363.6,366.1c47,23,36.1,78.3,36.1,78.3s-19-40.9-44.4-48.3S363.6,366.1,363.6,366.1z"/>
	<g>
		<circle class="st4" cx="297.3" cy="409" r="122.3"/>
		<path class="st2" d="M464.3,338.4c-9.1-21.6-22.2-41-38.8-57.6c-16.6-16.6-36-29.7-57.6-38.8c-22.4-9.5-46.1-14.3-70.6-14.3
			c-24.4,0-48.2,4.8-70.6,14.3c-21.6,9.1-41,22.2-57.6,38.8s-29.7,36-38.8,57.6c-9.5,22.4-14.3,46.1-14.3,70.6
			c0,24.4,4.8,48.2,14.3,70.6c9.1,21.6,22.2,41,38.8,57.6s36,29.7,57.6,38.8c22.4,9.5,46.1,14.3,70.6,14.3
			c24.4,0,48.2-4.8,70.6-14.3c21.6-9.1,41-22.2,57.6-38.8s29.7-36,38.8-57.6c9.5-22.4,14.3-46.1,14.3-70.6S473.8,360.8,464.3,338.4z
			 M297.3,531.3C229.8,531.3,175,476.6,175,409s54.7-122.3,122.3-122.3S419.6,341.4,419.6,409S364.8,531.3,297.3,531.3z"/>
	</g>
	<g>
		<g>
			<path class="st0" d="M221.4,263c-0.1,0.7-0.2,1.6-0.3,2.9c0.1,0.5,0.1,1.3,0.1,2.4c0,0.2-0.1,0.3-0.3,0.5c0,0-1,0.3-3,1
				s-3.6,1.5-4.7,2.3c-3.2,2.4-3.9,4.6-2.3,6.6c0.9,1.1,2.7,1.1,5.4,0.3c4.6-1.3,7.1-1.8,7.6-1.8c3-0.1,5.2,1,6.7,3.3
				c1.9,2.9,1.9,6.1,0.5,9.5c-1.3,3.1-3.4,5.8-6.6,8.4c-1.5,1.2-2.3,1.8-2.7,1.6c-0.4-0.4-1.1-0.9-2.1-1.6c-0.4-0.2-1-0.6-1.9-1.1
				c-0.1-0.1-0.2-0.1-0.3-0.2c-0.1-0.2-0.1-0.3,0.1-0.5c0.3-0.3,0.9-0.7,1.6-1.3c0.7-0.5,1.3-1,1.6-1.3c4.4-3.6,5.8-6.5,4-9
				c-0.9-1.2-2.6-1.6-5.2-1c-4.8,1.2-7.2,2-7.4,2c-3,0.5-5.3-0.2-7.1-2.1c-1.9-2.1-2.5-4.7-1.6-7.8c0.9-3,3.1-5.9,6.5-8.4
				c1.4-1.1,3.2-2.1,5.3-3.1c2.3-1,4.2-1.6,5.5-1.7C221.1,262.9,221.2,262.9,221.4,263z"/>
			<path class="st0" d="M258.7,244.3c0.5,1.7,1.1,4.3,1.9,7.8c0.8,3.5,1.5,6.1,2,7.8c0.2,0.6,0.4,1.4,0.8,2.5
				c0.3,1.1,0.6,1.9,0.7,2.5c0.9,3.1,1.2,5.3,0.9,6.7c-0.5,2.1-2,3.9-4.5,5.5c-1.5,1-3.8,2-6.8,3.3c-5.4,2.3-9.2,3.4-11.8,2.8
				c-1.9-0.5-4-2.5-6.1-6.1c-0.3-0.4-0.7-1.2-1.3-2.2c-0.6-1.1-1.1-1.9-1.4-2.5c-0.9-1.6-2.7-4.4-5.3-8.5c-0.6-1.1-1.7-2.7-3.1-4.7
				c-0.1-0.1-0.2-0.2-0.2-0.3c-0.2-0.3,0-0.6,0.5-0.8c0.8-0.4,1.8-1,3.2-1.8c1.6-0.8,2.6-1.4,3.2-1.7c0.4-0.2,0.7-0.2,0.9,0
				c1.1,2.1,2.6,5.3,4.6,9.5s3.5,7.4,4.6,9.5c1.2,2.4,2.6,3.6,4.3,3.9c1.4,0.2,3.5-0.3,6.4-1.5c2.6-1.1,4.3-2.1,5.2-3.2
				c1.1-1.3,1.3-3.1,0.6-5.3c-0.8-2.3-2-5.7-3.7-10.3c-1.7-4.6-2.9-8-3.7-10.3c-0.1-0.2,0.2-0.5,0.7-0.7c0.4-0.2,1-0.4,1.8-0.6
				c1-0.2,1.4-0.4,1.4-0.3c0.4-0.1,0.9-0.3,1.7-0.6c0.7-0.3,1.3-0.5,1.7-0.6C258.3,243.9,258.6,244,258.7,244.3z"/>
			<path class="st0" d="M299.2,270.3c0,0.1-0.1,0.2-0.4,0.2s-0.8,0-1.4-0.1c-0.6,0-1.1,0-1.4,0s-0.9,0.1-1.6,0.1
				c-0.7,0.1-1.2,0.1-1.6,0.1s-0.7-0.2-0.9-0.5c-0.6-1-2.3-4.2-5.6-9.3c-0.3-0.5-1-0.8-2.1-0.8c-0.2,0-1.1,0.1-2.5,0.3
				c-2.5,0.4-4,0.6-4.4,0.8c-0.4,0.1-0.5,0.5-0.4,1.3c0.2,1.1,0.5,2.6,1,4.7s0.8,3.7,1,4.7c0.1,0.3-0.1,0.5-0.4,0.6
				s-0.8,0.1-1.5,0.2s-1.2,0.1-1.5,0.2s-0.7,0.2-1.3,0.3c-0.6,0.2-1,0.3-1.3,0.4c-0.4,0.1-0.7,0-0.7-0.4c-0.4-1.7-0.9-4.2-1.5-7.6
				s-1.1-5.9-1.5-7.6c-1.1-4.7-2.5-9.7-4.2-15c0-0.1-0.1-0.2-0.1-0.4c-0.1-0.3,0.3-0.5,1.2-0.8c1.8-0.4,4.5-1,8-1.7
				c3.6-0.7,6.3-1.1,8.1-1.3c4.7-0.5,8.6,0.1,11.4,1.6c3.2,1.7,4.7,4.2,4.7,7.6c0,2.3-0.4,4.1-1.1,5.4c-0.8,1.4-2.2,2.7-4.3,4.1
				c-0.3,0.2-0.5,0.4-0.5,0.6s1.3,2.2,3.5,6C298.3,268,299.2,270.1,299.2,270.3z M291.1,249.7c-0.2-2.8-1.3-4.6-3.5-5.3
				c-1.6-0.6-4.5-0.7-8.6-0.1c-3.3,0.5-4.9,1-4.9,1.4c0,0.8,0.3,3,1,6.6c0.3,1.4,0.5,2.9,0.8,4.3c0.1,0,0.2,0,0.4,0
				c0.3,0,0.9-0.1,1.7-0.2c1.8-0.2,3.7-0.5,5.8-0.7C288.8,255.1,291.3,253.3,291.1,249.7z"/>
			<path class="st0" d="M332.7,246.7c-0.1,0.3-0.3,0.4-0.7,0.3c-1.6-0.4-4.1-1-7.7-1.8c-3.3-0.7-6-1.1-7.8-1.3
				c-0.7-0.1-1.5-0.2-2.2-0.2c-1.4-0.1-2.2-0.2-2.3-0.1c-0.4,0.1-0.7,0.6-0.7,1.4c-0.2,1.8-0.3,3.7-0.5,5.5c-0.1,1,0.2,1.6,0.7,1.6
				c1.9,0.2,4.7,0.4,8.5,0.8c3.8,0.4,6.6,0.9,8.4,1.3c0.4,0.1,0.6,0.3,0.5,0.5c-0.1,0.3-0.2,0.6-0.3,1.1c-0.2,0.5-0.3,0.9-0.3,1.1
				c-0.1,0.3-0.1,0.7-0.2,1.2c-0.1,0.6-0.2,1-0.2,1.2s-0.3,0.2-0.6,0.1c-1.3-0.3-3.2-0.7-5.7-1.2c-2.6-0.5-4.5-0.8-5.8-0.9
				c-2.4-0.3-3.7-0.4-4.1-0.4c-0.8,0-1.3,0.3-1.3,0.7c-0.1,1.4-0.2,3.5-0.4,6.2c-0.1,2.8-0.3,4.8-0.4,6.2c0,0.5-0.3,0.7-0.7,0.6
				c-0.3,0-0.8-0.1-1.5-0.2s-1.2-0.2-1.5-0.2s-0.7,0-1.3,0c-0.6,0-1,0-1.3,0c-0.4,0-0.6-0.2-0.6-0.5c0-1.7,0.2-4.3,0.5-7.7
				c0.3-3.4,0.4-6,0.5-7.7c0-1.6,0-6.7-0.2-15.5c0-0.1,0-0.2,0-0.3c0-0.3,0.3-0.5,0.8-0.5c0.2,0,1.5,0.1,4,0.2
				c3.3,0.2,6.4,0.5,9.2,0.8c3.8,0.4,8.7,1,14.6,2c0.8,0.1,1.2,0.5,1.2,1c-0.1,0.4-0.2,1-0.3,1.9
				C332.9,245.6,332.8,246.4,332.7,246.7z"/>
			<path class="st0" d="M354,278.7c-0.1,0.2-0.3,0.5-0.7,0.9c-0.4,0.5-0.6,0.7-0.7,0.8c-0.3,0.5-0.8,1.1-1.4,2
				c-0.2,0.2-0.5,0.2-0.8,0.1c-0.2-0.1-0.4-0.2-0.8-0.5c-1.8-1.1-4.7-2.6-8.7-4.2c-1.2-0.4-2.9-1-5.3-1.7s-4.2-1.2-5.3-1.5
				c-0.5-0.1-0.7-0.4-0.6-0.9c0.4-1.7,1.2-4.1,2.3-7.4c1.1-3.3,1.9-5.7,2.3-7.4c0.5-1.7,1.2-4.9,2.2-9.6c0.3-1.2,0.6-3,1.1-5.4
				c0-0.1,0-0.2,0.1-0.3c0.1-0.3,0.4-0.4,0.9-0.3c1.4,0.4,3.6,1,6.4,2s4.9,1.8,6.4,2.3c1.3,0.5,3.4,1.2,6.1,2.3s4.7,1.9,6,2.6
				c0.9,0.4,1.3,0.9,1.2,1.3c-0.5,2-0.8,3.3-1.1,3.7c-0.2,0.3-0.4,0.4-0.9,0.2c-1.6-0.8-4-2-7.3-3.5s-5.8-2.5-7.5-3.1
				c-1.6-0.6-2.7-0.7-3.2-0.6c-0.5,0.2-1,0.9-1.4,2.2c-0.4,1.1-0.7,2.2-1.1,3.3c-0.3,0.9-0.4,1.4-0.4,1.6c0,0.5,0.4,0.9,1.2,1.2
				c0.2,0.1,0.5,0.2,1,0.3c0.4,0.1,0.7,0.3,0.9,0.3c3.6,1.3,6.8,2.5,9.7,3.7c1.1,0.5,2.4,1,4,1.6c0.4,0.2,0.5,0.4,0.4,0.6
				c-0.2,0.4-0.6,1.1-1.2,1.9c-0.6,0.9-1,1.5-1.2,2c-0.1,0.2-0.4,0.3-1,0c-0.2-0.1-0.9-0.5-2.2-1.2c-0.9-0.5-3.1-1.5-6.6-2.9
				c-2.9-1.1-4.8-1.7-5.6-1.9c-0.7-0.2-1.2,0-1.5,0.5c0-0.1-0.1,0.5-0.5,1.7c-0.4,1.1-0.7,2.2-1.1,3.3c-0.5,1.5-0.5,2.6-0.1,3.1
				c0.3,0.4,1.3,0.9,2.9,1.5c0.9,0.3,1.8,0.7,2.7,1c1.1,0.5,4.4,1.5,9.7,3.7c0.1,0.1,0.2,0.1,0.4,0.2
				C354.1,278.1,354.2,278.3,354,278.7z"/>
			<path class="st0" d="M378.5,300.9c-0.1,0.1-0.2,0-0.4-0.1c-0.3-0.2-0.6-0.6-1.1-1.1s-0.9-0.8-1.1-1.1c-0.3-0.2-0.7-0.6-1.3-1
				c-0.6-0.4-1-0.8-1.3-1c-0.3-0.3-0.4-0.6-0.4-1c0.2-1.2,1-4.7,1.9-10.8c0.1-0.6-0.3-1.3-1.1-2c-0.2-0.2-0.9-0.7-2.1-1.5
				c-2.2-1.5-3.5-2.3-4-2.5c-0.4-0.2-0.7,0.1-1.1,0.7c-0.6,0.9-1.4,2.3-2.4,4.2c-1,1.9-1.8,3.3-2.4,4.2c-0.2,0.3-0.4,0.3-0.7,0.1
				c-0.3-0.2-0.7-0.5-1.3-0.9c-0.6-0.4-1-0.7-1.3-0.9c-0.3-0.1-0.6-0.3-1.2-0.6c-0.5-0.3-0.9-0.4-1.2-0.6c-0.4-0.2-0.5-0.5-0.3-0.8
				c0.8-1.5,2.1-3.7,3.9-6.6s3.1-5.1,4-6.6c2.3-4.3,4.6-8.9,6.8-14c0-0.1,0.1-0.2,0.1-0.3c0.1-0.3,0.6-0.2,1.4,0.3
				c1.6,0.9,4.1,2.3,7.3,4.2c3.2,2,5.6,3.6,7.1,4.7c4,2.9,6.6,6,7.9,9.2c1.4,3.5,0.8,6.5-1.4,8.9c-1.5,1.7-3,2.7-4.5,3.2
				c-1.6,0.5-3.6,0.4-6.1,0c-0.4-0.1-0.7,0-0.8,0.1c-0.1,0.2-0.5,2.5-1.3,6.9C379.3,298.5,378.7,300.7,378.5,300.9z M386.1,279.8
				c1.7-2.2,2.1-4.3,0.9-6.4c-0.9-1.6-3.1-3.6-6.6-6c-2.9-1.9-4.5-2.7-4.8-2.4c-0.6,0.6-1.8,2.5-3.7,5.6c-0.8,1.3-1.5,2.5-2.3,3.8
				c0,0.1,0.1,0.1,0.3,0.3c0.3,0.2,0.8,0.6,1.4,1c1.5,1.1,3.2,2.2,4.9,3.5C380.6,282.2,383.8,282.6,386.1,279.8z"/>
		</g>
	</g>
	<g>
		<g>
			<path class="st0" d="M220.8,536.2c-1.7,3.2-4.1,5.2-7.3,5.9c-3.3,0.7-6.9-0.1-10.8-2.5c-0.9-0.6-2.4-1.6-4.2-2.9
				c-1.8-1.3-3.2-2.4-4.2-3c-0.5-0.4-1-0.3-1.3,0.2c-0.5,0.7-1.2,1.7-2,3.1c-0.9,1.4-1.5,2.4-2,3.1c-0.2,0.2-0.4,0.2-0.7,0
				c-0.4-0.3-0.9-0.7-1.5-1.3c-0.7-0.6-1.2-1-1.5-1.3c-0.3-0.2-0.8-0.5-1.4-1c-0.6-0.4-1-0.7-1.3-1c-0.4-0.3-0.5-0.7-0.2-1
				c1-1.3,2.7-3.2,5-5.8c2.3-2.5,3.9-4.5,5-5.8c3-3.8,6-7.9,9.1-12.5c0.1-0.1,0.1-0.2,0.2-0.3c0.2-0.3,0.5-0.3,0.8,0
				c0.7,0.6,1.8,1.5,3.3,2.6c1.5,1.1,2.6,2,3.4,2.5c0.7,0.5,1.7,1.1,3,2c1.4,0.8,2.4,1.5,3.1,1.9c3.2,2,5.2,4.6,6.2,7.8
				C222.6,530.1,222.4,533.2,220.8,536.2z M214.6,533.2c1.2-2,1.5-4,0.9-5.9c-0.5-2-1.9-3.7-4-5.1c-0.7-0.4-1.9-1.2-3.7-2.3
				c-2-1.3-3.1-1.9-3.2-1.8c-0.2,0.1-1.8,2.2-4.8,6.3c-0.4,0.5-0.9,1.3-1.7,2.4c-0.7,1.1-1.3,1.9-1.7,2.4c-0.1,0.1,0,0.3,0.3,0.6
				c0.8,0.8,3.1,2.6,7.1,5.2c2.3,1.5,4.4,2,6.3,1.6C212.1,536.2,213.5,535,214.6,533.2z"/>
			<path class="st0" d="M243.1,562.7c-0.1,0.2-0.3,0.5-0.5,0.9c-0.3,0.5-0.6,0.8-0.6,0.9c-0.2,0.5-0.6,1.2-1.1,2.2
				c-0.2,0.2-0.5,0.3-0.9,0.2c-0.2-0.1-0.5-0.2-1.1-0.5c-2.3-1.1-5.8-2.4-10.6-4.4c-1.4-0.6-3.4-1.4-6.2-2.5
				c-2.7-1.2-4.8-2.1-6.1-2.8c-0.6-0.3-0.8-0.6-0.6-1c0.8-1.5,2-3.8,3.8-6.8s3-5.3,3.8-6.8c0.8-1.6,2.1-4.6,4.1-8.9
				c0.5-1.1,1.3-2.8,2.2-5.1c0-0.1,0.1-0.2,0.1-0.3c0.1-0.3,0.4-0.4,0.8-0.2c1.1,0.5,2.6,1.3,4.7,2.3c2.1,1,3.7,1.7,4.8,2.2
				c1,0.4,2.6,1,4.7,1.8c2.1,0.7,3.7,1.2,4.7,1.6c0.7,0.2,1.1,0.6,1,1c-0.3,2-0.5,3.3-0.7,3.8c-0.1,0.3-0.3,0.4-0.7,0.3
				c-1.4-0.5-3.5-1.2-6.2-2.4s-4.7-2.1-6.1-2.7c-1.3-0.6-2.2-0.8-2.7-0.6s-1,0.8-1.5,2.1c-0.5,1-0.9,2.1-1.4,3.1
				c-0.4,0.9-0.6,1.4-0.6,1.5c0,0.5,0.3,0.9,1,1.2c0.2,0.1,0.5,0.2,0.9,0.3c0.4,0.2,0.7,0.3,0.9,0.4c3.3,1.4,6.3,2.5,9,3.3
				c1,0.3,2.3,0.7,3.8,1.1c0.4,0.1,0.5,0.3,0.4,0.6c-0.2,0.5-0.5,1.2-0.9,2.1c-0.4,0.9-0.8,1.6-0.9,2.1c-0.1,0.3-0.4,0.3-0.9,0.1
				c-0.2-0.1-1-0.4-2.3-1c-0.9-0.4-3.1-1.3-6.5-2.6c-2.9-1.1-4.6-1.9-5.4-2.2c-0.7-0.3-1.2-0.1-1.6,0.4c0.1-0.1-0.2,0.5-0.7,1.6
				c-0.5,1-0.9,2.1-1.4,3.1c-0.7,1.5-0.8,2.5-0.4,3.1c0.3,0.5,1.4,1.1,3.2,1.9c1,0.4,2,0.8,3,1.2c1.3,0.5,4.9,1.8,11,3.4
				c0.1,0,0.3,0.1,0.4,0.1C243.1,562,243.3,562.3,243.1,562.7z"/>
			<path class="st0" d="M285.8,543.5c-0.1,1.8-0.4,4.4-0.9,8c-0.4,3.5-0.7,6.2-0.9,8c-0.1,1.7-0.3,4.2-0.6,7.5
				c-0.2,3.3-0.4,5.8-0.6,7.5c0,0.5-0.3,0.7-0.8,0.7c-0.3,0-0.7-0.1-1.3-0.2c-0.6-0.1-1-0.2-1.3-0.2s-0.8-0.1-1.5-0.1
				s-1.1-0.1-1.5-0.1s-0.8-0.3-1.2-0.9c-3.7-5-9-12.5-14.6-23c-0.9-1.6-1.3-2.5-1.5-2.7c-0.2,0-0.3,0.2-0.5,0.9
				c-0.6,2.3-1.4,5.8-2.5,10.4c-1.1,4.6-1.9,8.1-2.4,10.4c-0.1,0.5-0.4,0.7-0.8,0.6c-0.3-0.1-0.8-0.2-1.5-0.5
				c-0.7-0.2-1.2-0.4-1.5-0.5s-0.9-0.2-1.6-0.4c-0.7-0.1-1.2-0.3-1.6-0.4c-0.5-0.1-0.7-0.4-0.6-0.7c0.5-1.6,1.3-4,2.4-7.3
				c1.1-3.2,1.9-5.6,2.4-7.3c0.5-1.8,1.4-5,2.6-9.7c0.3-1.2,0.8-3.1,1.3-5.5c0-0.1,0-0.2,0.1-0.3c0-0.2,0.3-0.3,0.7-0.2
				c1,0.3,1.9,0.5,2.5,0.6c0.2,0,0.7,0.1,1.3,0.2c0.6,0,1,0.1,1.3,0.2c0.1,0,0.3,0.3,0.6,0.8c2.5,5.6,6.8,14,14.3,24.7
				c0.3,0.4,0.7,0.8,1,1.2c0.2-0.6,0.5-2.1,0.7-4.4c0.2-2,0.5-5,0.9-9c0.3-4,0.6-7,0.9-8.9c0.1-0.5,0.3-0.7,0.6-0.7
				c0.3,0,0.7,0.1,1.3,0.2c0.6,0.1,1,0.2,1.3,0.2s0.8,0.1,1.4,0.1s1.1,0,1.4,0.1C285.6,543,285.8,543.2,285.8,543.5z"/>
			<path class="st0" d="M325.6,572.9c0.1,0.3-0.1,0.5-0.7,0.6c-0.3,0-1-0.1-2.2-0.4c-1.2-0.3-1.9-0.5-2.3-0.7
				c-3.4,2.3-7.6,3.7-12.7,3.9c-5.9,0.3-10.7-1.4-14.3-4.9c-3.4-3.3-4.8-7.3-4.6-11.9c0.3-4.7,2.1-8.5,5.2-11.7
				c3.3-3.3,7.2-5,12.1-5.2c2.5-0.1,5,0.3,7.4,1.1c2.5,0.9,4.5,2.2,6.2,3.9c0.3,0.3,0.4,0.5,0.4,0.6c0,0.2-0.5,1-1.6,2.4
				c-1.1,1.3-1.7,2-1.9,2c-0.1,0-0.7-0.4-1.7-1.2c-1.2-1-2.3-1.8-3.4-2.3c-1.6-0.8-3.3-1.2-4.9-1.1c-3.2,0.2-5.8,1.4-7.9,3.8
				c-1.9,2.2-2.9,4.8-3,7.8c-0.1,2.9,0.9,5.6,3.1,7.8c2.3,2.4,5.4,3.6,9,3.4c3.5-0.2,6.7-1.2,9.5-3c-0.1-0.4-0.4-1.8-0.9-4.3
				c-0.4-1.8-0.7-3.2-0.8-4.3c0-0.3,0.2-0.4,0.6-0.5c0.3,0,0.9-0.1,1.6-0.1s1.2-0.1,1.6-0.1c0.3,0,0.9-0.1,1.6-0.2
				c0.7-0.1,1.2-0.2,1.6-0.3s0.6,0.2,0.7,0.7s0.2,1.3,0.3,2.4c0.1,1.1,0.2,1.9,0.3,2.4c0.3,2.2,0.9,5.1,1.8,8.8
				C325.5,572.7,325.6,572.8,325.6,572.9z"/>
			<path class="st0" d="M352.5,534.5c0.6,1.7,1.5,4.2,2.5,7.6c1.1,3.4,1.9,5.9,2.5,7.6c0.2,0.5,0.5,1.4,0.9,2.5s0.7,1.9,0.9,2.4
				c1.1,3,1.5,5.2,1.2,6.7c-0.5,2.2-2.2,4.2-5.3,5.9c-1.9,1-4.7,2.1-8.5,3.1c-6.8,1.8-11.5,1.8-13.9,0.4c-1.9-1.1-3.2-3.7-3.9-7.7
				c-0.1-0.5-0.2-1.3-0.4-2.5c-0.2-1.2-0.3-2.1-0.5-2.8c-0.3-1.8-1-5.1-2-9.8c-0.2-1.2-0.6-3.1-1.2-5.5c0-0.2-0.1-0.3-0.1-0.4
				c-0.1-0.3,0.1-0.5,0.6-0.6c0.7-0.1,1.6-0.3,2.7-0.5c1.3-0.2,2.2-0.4,2.7-0.5c0.4-0.1,0.6,0,0.6,0.3c0.5,2.3,1.2,5.7,2.1,10.3
				s1.6,8.1,2,10.4c0.6,2.6,1.6,4.2,3.3,4.8c1.4,0.5,3.8,0.4,7.2-0.5c3-0.8,5.1-1.8,6.2-2.8c1.4-1.3,1.6-3.1,0.9-5.3
				c-0.7-2.3-1.9-5.8-3.5-10.4c-1.6-4.6-2.7-8.1-3.5-10.4c-0.1-0.2,0.1-0.5,0.5-0.7c0.3-0.2,0.8-0.3,1.4-0.5
				c0.7-0.2,1.1-0.3,1.1-0.3c0.3-0.1,0.7-0.3,1.3-0.5c0.6-0.2,1-0.4,1.3-0.5C352.1,534,352.4,534.1,352.5,534.5z"/>
			<path class="st0" d="M376.8,558.3c0.1,0.3-0.1,0.6-0.6,0.8c-0.3,0.2-0.8,0.4-1.6,0.6c-0.7,0.3-1.2,0.5-1.6,0.6
				c-0.4,0.2-0.9,0.4-1.5,0.7c-0.7,0.3-1.2,0.6-1.5,0.7c-0.5,0.2-0.8,0.1-0.9-0.2c-0.7-1.6-1.6-4.1-2.7-7.5
				c-1.2-3.3-2.1-5.8-2.8-7.5c-0.7-1.6-1.7-3.9-3.2-7s-2.5-5.4-3.2-7c-0.1-0.4,0-0.6,0.3-0.8c0.3-0.1,0.7-0.3,1.4-0.5
				c0.6-0.2,1.1-0.4,1.4-0.5s0.7-0.3,1.2-0.6s0.9-0.5,1.2-0.6c0.4-0.2,0.7-0.1,0.8,0.1c0.7,1.6,1.7,3.9,3.1,7.1
				c1.3,3.2,2.3,5.6,3,7.1c0.7,1.6,1.9,4,3.5,7.1C374.9,554.3,376.1,556.7,376.8,558.3z"/>
			<path class="st0" d="M395.6,510.1c1.1,1.4,2.7,3.5,4.8,6.4c2.1,2.9,3.7,5,4.8,6.4c1,1.3,2.6,3.3,4.7,5.9c2.1,2.6,3.7,4.5,4.7,5.9
				c0.3,0.4,0.3,0.8-0.1,1.1c-0.2,0.2-0.6,0.5-1.2,0.8c-0.5,0.4-0.9,0.6-1.2,0.8c-0.3,0.2-0.7,0.5-1.2,1s-0.9,0.8-1.2,1
				c-0.3,0.2-0.8,0.3-1.5,0.2c-6.2-1-15.5-2.7-26.9-6.4c-1.7-0.6-2.7-0.9-3-0.9c-0.2,0.1-0.1,0.4,0.2,1c1.2,2.1,2.9,5.2,5.3,9.3
				s4.2,7.2,5.3,9.3c0.2,0.4,0.2,0.8-0.2,1c-0.3,0.2-0.8,0.4-1.4,0.7c-0.7,0.3-1.1,0.5-1.4,0.7s-0.8,0.4-1.4,0.8
				c-0.6,0.4-1.1,0.6-1.4,0.8c-0.5,0.2-0.8,0.2-0.9-0.1c-0.8-1.5-1.8-3.8-3.2-7c-1.4-3.1-2.4-5.5-3.2-7c-0.8-1.7-2.4-4.6-4.8-8.9
				c-0.6-1.1-1.5-2.8-2.8-5c-0.1-0.1-0.1-0.2-0.2-0.3c-0.1-0.2,0-0.4,0.4-0.6c1-0.5,1.7-0.9,2.2-1.3c0.2-0.1,0.6-0.4,1.1-0.8
				c0.4-0.3,0.8-0.6,1.1-0.8c0.1-0.1,0.5,0,1,0.2c5.8,2.3,14.7,5.5,27.9,7.9c0.6,0.1,1.1,0.1,1.5,0.2c-0.3-0.6-1.1-1.8-2.5-3.7
				c-1.2-1.6-3-4-5.5-7.1s-4.3-5.5-5.5-7.1c-0.3-0.4-0.3-0.7,0-0.9c0.2-0.2,0.6-0.4,1.2-0.8c0.5-0.3,0.9-0.6,1.2-0.8
				c0.3-0.2,0.6-0.5,1.1-1c0.5-0.4,0.9-0.8,1.1-1C395.1,509.8,395.3,509.8,395.6,510.1z"/>
		</g>
	</g>
	<g>
		<g>
			<path class="st0" d="M167.8,411c-0.7-0.5-1.5-0.9-2.2-1.4c-2.5-1.5-5.3-2.3-7.8-3.1c0.6,1.8,1.3,3.7,1.7,5.6
				c0.6,4-0.5,8.1-4.1,10.4c-2.4,1.6-5,1.7-7.8,0.9c-3.9-1.1-7-3.5-9.7-6.4c-3.2-3.4-6.7-6.4-10.5-9.1c-1.4-1-2.8-2-4.4-3
				c1-0.6,1.9-1.1,2.7-1.7c4.7-3,8.7-6.7,12.5-10.8c2.8-3.1,6.3-5.3,10.6-5.8c5.1-0.6,9.4,2.6,10.3,7.8c0.5,2.8-0.1,5.4-1.2,8
				c-0.1,0.3-0.2,0.5-0.4,0.9c3.3-0.8,6.5-1.5,9-3.9c0.4-0.4,0.9-0.7,1.4-1.1C167.8,402.6,167.8,406.8,167.8,411z"/>
		</g>
	</g>
	<g>
		<g>
			<g>
				<g>
					<path class="st0" d="M147.1,328.7c0.8-1,1.7-2,2.9-2.6c1.7-0.8,3.4-0.7,5.1,0.1c3,1.4,4.8,3.8,5.8,6.9c0,0.1,0.1,0.1,0.2,0.2
						c0.5-2.1,1.4-3.9,3-5.2c2-1.7,4.3-2.6,6.9-1.7c3.3,1.2,5.8,5.1,3.8,8.9c-1.2,2.4-3.7,4.2-6.3,4.8c3.8,1.4,7.6,2,11.7,0.7
						c-2.3,4-4.5,7.8-6.7,11.8c-1.1-4-3.7-6.6-7-9.2c0.7,1.9,0.7,3.6,0.3,5.4c-0.9,4.1-4.8,6.1-8.7,4.6c-4-1.5-5-5.3-3.9-8.7
						c0.6-1.8,1.6-3.2,3-4.6c-2,0.6-3.9,0.7-5.8,0.2c-2.4-0.6-4.4-1.8-5.6-4.1c-0.8-1.7-0.7-3.4-0.1-5.1c0.1-0.2,0.2-0.5,0.2-0.7
						C146.5,329.9,146.8,329.3,147.1,328.7z"/>
				</g>
			</g>
		</g>
		<g>
			<g>
				<g>
					<path class="st0" d="M146.3,485.8c-0.5-1.2-1-2.4-0.9-3.8c0.1-1.9,1-3.3,2.5-4.4c2.7-1.9,5.6-2.5,8.8-1.9c0.1,0,0.1,0,0.3,0
						c-1.6-1.4-2.7-3.1-3.2-5.1c-0.5-2.6-0.3-5,1.8-6.9c2.6-2.4,7.2-2.7,9.7,0.9c1.5,2.3,1.9,5.2,1.2,7.8c3.1-2.7,5.4-5.7,6.3-9.9
						c2.4,4,4.7,7.7,7.1,11.5c-4-0.9-7.6,0.1-11.4,1.7c2,0.3,3.5,1.1,4.9,2.3c3.1,2.8,3.1,7.1-0.1,9.9c-3.2,2.8-7,1.8-9.5-0.8
						c-1.3-1.3-2.1-2.9-2.6-4.8c-0.4,2.1-1.3,3.8-2.6,5.2c-1.7,1.8-3.7,3.1-6.2,3c-1.9-0.1-3.3-1-4.5-2.4c-0.2-0.2-0.3-0.4-0.5-0.5
						C147,486.9,146.7,486.4,146.3,485.8z"/>
				</g>
			</g>
		</g>
		<g>
			<g>
				<g>
					<path class="st0" d="M447.8,329.7c-0.8-1-1.7-2-2.9-2.6c-1.7-0.8-3.4-0.7-5,0.1c-3,1.4-4.8,3.8-5.8,6.9c0,0.1-0.1,0.1-0.2,0.2
						c-0.5-2.1-1.4-3.9-3-5.2c-2-1.7-4.3-2.6-6.9-1.7c-3.3,1.2-5.8,5.1-3.8,8.9c1.2,2.4,3.7,4.2,6.2,4.8c-3.8,1.4-7.6,2-11.7,0.7
						c2.3,4,4.5,7.8,6.7,11.8c1.1-4,3.7-6.6,6.9-9.2c-0.7,1.9-0.7,3.6-0.3,5.4c0.9,4.1,4.8,6.1,8.6,4.6c4-1.5,4.9-5.3,3.9-8.7
						c-0.6-1.8-1.5-3.2-3-4.6c2,0.6,3.9,0.7,5.8,0.2c2.4-0.6,4.4-1.8,5.5-4.1c0.8-1.7,0.7-3.4,0.1-5.1c-0.1-0.2-0.2-0.5-0.2-0.7
						C448.5,330.9,448.1,330.3,447.8,329.7z"/>
				</g>
			</g>
		</g>
		<g>
			<g>
				<g>
					<path class="st0" d="M448.6,486.8c0.5-1.2,1-2.4,0.9-3.8c-0.1-1.9-1-3.3-2.5-4.4c-2.6-1.9-5.6-2.5-8.8-1.9c-0.1,0-0.1,0-0.3,0
						c1.6-1.4,2.7-3.1,3.2-5.1c0.5-2.6,0.3-5-1.8-6.9c-2.6-2.4-7.2-2.7-9.6,0.9c-1.5,2.3-1.9,5.2-1.2,7.8c-3.1-2.7-5.4-5.7-6.2-9.9
						c-2.4,4-4.7,7.7-7.1,11.5c4-0.9,7.6,0.1,11.3,1.7c-2,0.3-3.5,1.1-4.9,2.3c-3.1,2.8-3.1,7.1,0.1,9.9s7,1.8,9.4-0.8
						c1.3-1.3,2.1-2.9,2.6-4.8c0.4,2.1,1.3,3.8,2.6,5.2c1.7,1.8,3.6,3.1,6.2,3c1.9-0.1,3.3-1,4.5-2.4c0.2-0.2,0.3-0.4,0.5-0.5
						C447.9,487.9,448.2,487.3,448.6,486.8z"/>
				</g>
			</g>
		</g>
	</g>
	<g>
		<g>
			<path class="st0" d="M427.3,412c0.7-0.5,1.5-0.9,2.2-1.4c2.5-1.5,5.2-2.3,7.8-3.1c-0.6,1.8-1.3,3.7-1.6,5.6
				c-0.6,4,0.5,8.1,4,10.4c2.4,1.6,5,1.7,7.7,0.9c3.9-1.1,6.9-3.5,9.6-6.4c3.2-3.4,6.7-6.4,10.5-9.1c1.4-1,2.8-2,4.4-3
				c-1-0.6-1.8-1.1-2.7-1.7c-4.7-3-8.7-6.7-12.5-10.8c-2.8-3.1-6.3-5.3-10.5-5.8c-5.1-0.6-9.3,2.6-10.3,7.8c-0.5,2.8,0.1,5.4,1.2,8
				c0.1,0.3,0.2,0.5,0.4,0.9c-3.3-0.8-6.4-1.5-8.9-3.9c-0.4-0.4-0.9-0.7-1.4-1.1C427.3,403.6,427.3,407.8,427.3,412z"/>
		</g>
	</g>
	<g>
		<path class="st4" d="M409.7,440l64,13.5c3.6-14.4,5.5-29.2,5.5-44.3c0-16.6-2.2-32.8-6.6-48.6l-62.8,24.7l-0.7-1.9l62.9-24.7
			c-2-6.8-4.3-13.5-7.1-20.1c-7.8-18.6-18.6-35.5-32-50.4l-52.2,45.5l-1.3-1.5l52.2-45.4c-1.8-1.9-3.6-3.8-5.5-5.7
			c-16.6-16.6-36-29.7-57.6-38.8c-22.4-9.5-46.1-14.3-70.6-14.3c-24.4,0-48.2,4.8-70.6,14.3c-21.6,9.1-41,22.2-57.6,38.8
			c-1.2,1.2-2.3,2.3-3.4,3.5l48.8,46.2l-1.4,1.5L165,286.1c-14.4,15.5-25.8,33.1-34,52.6c-3,7-5.5,14.1-7.5,21.3l67.9,20.6l-0.6,1.9
			L122.9,362c-4.1,15.3-6.3,31.2-6.3,47.3c0,14,1.6,27.8,4.7,41.2l61.4-13.3l0.4,2l-61.4,13.2c2.3,9.3,5.3,18.5,9.1,27.4
			c7,16.5,16.2,31.6,27.6,45.3l46.2-41.5l1.3,1.5l-46.2,41.5c3.2,3.7,6.5,7.3,10,10.8c16.6,16.6,36,29.7,57.6,38.8
			c22.4,9.5,46.1,14.3,70.6,14.3c24.4,0,48.2-4.8,70.6-14.3c21.6-9.1,41-22.2,57.6-38.8c4-4,7.8-8.2,11.4-12.5l-53.3-40.2l1.2-1.6
			l53.3,40.2c10.7-13.2,19.5-27.8,26.1-43.5c3.4-8,6.1-16.1,8.3-24.4L409.2,442L409.7,440z"/>
		<path class="st0" d="M209.2,325.4l-43.1-40.8c-0.4,0.4-0.8,0.9-1.2,1.3l43.1,40.8L209.2,325.4z"/>
		<path class="st0" d="M179.7,377.3L123.2,360c-0.2,0.5-0.3,1.1-0.4,1.6l56.4,17.3L179.7,377.3z"/>
		<path class="st0" d="M179,437.8l-57.7,12.7c0.1,0.6,0.3,1.2,0.4,1.9l57.7-12.7L179,437.8z"/>
		<path class="st0" d="M202.6,485.4l-44.2,39.8c0.4,0.5,0.8,1,1.2,1.5l44.2-39.8L202.6,485.4z"/>
		<path class="st0" d="M387.8,327.2l45-39.2c-0.4-0.4-0.8-0.9-1.2-1.3l-44.9,39.2L387.8,327.2z"/>
		<path class="st0" d="M416.5,382.6l56-22.2c-0.2-0.6-0.3-1.2-0.5-1.7L415.8,381L416.5,382.6z"/>
		<path class="st0" d="M414.9,440.7l-0.4,1.9l58.6,12.9c0.2-0.6,0.3-1.2,0.5-1.9L414.9,440.7z"/>
		<path class="st0" d="M389.3,488.5l48.2,36.4c0.4-0.5,0.8-0.9,1.1-1.4l-48.3-36.4L389.3,488.5z"/>
	</g>
</g>
</svg>
