<svg enable-background="new 0 0 595.3 841.9" viewBox="0 0 595.3 841.9" xmlns="http://www.w3.org/2000/svg"><path d="m357 480.5c.6-5 .8-10.2.8-15.4 0-34.8-12.5-65.1-31-80.7 7.5-3.6 12.7-11.7 12.7-21.1 0-12.8-9.6-23.1-21.4-23.1-9.1 0-16.9 6.2-20 14.8-3.1-8.7-10.9-14.8-20-14.8-11.8 0-21.4 10.3-21.4 23.1 0 9.4 5.2 17.5 12.7 21.1-18.5 15.7-31 45.9-31 80.7 0 5.3.3 10.4.8 15.4-1.9-2.9-3.7-5.9-5.4-9l.8 11.9 62.9 5.3 63.7-1.5.9-14.7c-1.7 2.8-3.4 5.5-5.1 8zm-59-107.5c-.2 0-.4 0-.6 0 .2-.5.4-1 .6-1.5.2.5.4 1 .6 1.5-.2 0-.4 0-.6 0z" fill="#fff"/><path d="m373.3 407.9c0-58.2-33.8-105.5-75.4-105.5s-75.4 47.2-75.4 105.5c0 27.4 7.5 52.4 19.8 71.2-.5-4.9-.8-9.9-.8-15 0-33.8 11.8-63.2 29.3-78.4-7.1-3.5-12-11.3-12-20.5 0-12.4 9.1-22.4 20.2-22.4 8.6 0 16 6 18.9 14.4 2.9-8.4 10.3-14.4 18.9-14.4 11.2 0 20.2 10 20.2 22.4 0 9.1-4.9 17-12 20.5 17.5 15.2 29.3 44.6 29.3 78.4 0 5.1-.3 10.1-.8 15 12.3-18.8 19.8-43.8 19.8-71.2z" fill="#020203" stroke="#020203" stroke-miterlimit="10" stroke-width=".5"/><ellipse cx="255.2" cy="481.8" fill="#020203" rx="35.9" ry="19"/><ellipse cx="339.4" cy="481.8" fill="#020203" rx="35.9" ry="19"/><path d="m275 487h44.3" fill="none" stroke="#020203" stroke-miterlimit="10" stroke-width="6"/><path d="m288.1 388.6h19.3l-11 27.3z" fill="#020203"/><ellipse cx="289" cy="367.1" fill="#020203" rx="5.6" ry="10.8"/><ellipse cx="306.3" cy="367.1" fill="#020203" rx="5.6" ry="10.8"/><path d="m239.3 365.6c-53.5 23.4-45.1 79.4-45.1 79.4s23.8-41.4 52.3-49.1c28.5-7.8-7.2-30.3-7.2-30.3z" fill="#020203"/><path d="m363.6 366.1c47 23 36.1 78.3 36.1 78.3s-19-40.9-44.4-48.3 8.3-30 8.3-30z" fill="#020203"/><circle cx="297.3" cy="409" fill="none" r="122.3"/><path d="m464.3 338.4c-9.1-21.6-22.2-41-38.8-57.6s-36-29.7-57.6-38.8c-22.4-9.5-46.1-14.3-70.6-14.3-24.4 0-48.2 4.8-70.6 14.3-21.6 9.1-41 22.2-57.6 38.8s-29.7 36-38.8 57.6c-9.5 22.4-14.3 46.1-14.3 70.6 0 24.4 4.8 48.2 14.3 70.6 9.1 21.6 22.2 41 38.8 57.6s36 29.7 57.6 38.8c22.4 9.5 46.1 14.3 70.6 14.3 24.4 0 48.2-4.8 70.6-14.3 21.6-9.1 41-22.2 57.6-38.8s29.7-36 38.8-57.6c9.5-22.4 14.3-46.1 14.3-70.6s-4.8-48.2-14.3-70.6zm-167 192.9c-67.5 0-122.3-54.7-122.3-122.3s54.7-122.3 122.3-122.3 122.3 54.7 122.3 122.3-54.8 122.3-122.3 122.3z" fill="#020203"/><g fill="#fff"><path d="m221.4 263c-.1.7-.2 1.6-.3 2.9.1.5.1 1.3.1 2.4 0 .2-.1.3-.3.5 0 0-1 .3-3 1s-3.6 1.5-4.7 2.3c-3.2 2.4-3.9 4.6-2.3 6.6.9 1.1 2.7 1.1 5.4.3 4.6-1.3 7.1-1.8 7.6-1.8 3-.1 5.2 1 6.7 3.3 1.9 2.9 1.9 6.1.5 9.5-1.3 3.1-3.4 5.8-6.6 8.4-1.5 1.2-2.3 1.8-2.7 1.6-.4-.4-1.1-.9-2.1-1.6-.4-.2-1-.6-1.9-1.1-.1-.1-.2-.1-.3-.2-.1-.2-.1-.3.1-.5.3-.3.9-.7 1.6-1.3.7-.5 1.3-1 1.6-1.3 4.4-3.6 5.8-6.5 4-9-.9-1.2-2.6-1.6-5.2-1-4.8 1.2-7.2 2-7.4 2-3 .5-5.3-.2-7.1-2.1-1.9-2.1-2.5-4.7-1.6-7.8.9-3 3.1-5.9 6.5-8.4 1.4-1.1 3.2-2.1 5.3-3.1 2.3-1 4.2-1.6 5.5-1.7.3 0 .4 0 .6.1z"/><path d="m258.7 244.3c.5 1.7 1.1 4.3 1.9 7.8s1.5 6.1 2 7.8c.2.6.4 1.4.8 2.5.3 1.1.6 1.9.7 2.5.9 3.1 1.2 5.3.9 6.7-.5 2.1-2 3.9-4.5 5.5-1.5 1-3.8 2-6.8 3.3-5.4 2.3-9.2 3.4-11.8 2.8-1.9-.5-4-2.5-6.1-6.1-.3-.4-.7-1.2-1.3-2.2-.6-1.1-1.1-1.9-1.4-2.5-.9-1.6-2.7-4.4-5.3-8.5-.6-1.1-1.7-2.7-3.1-4.7-.1-.1-.2-.2-.2-.3-.2-.3 0-.6.5-.8.8-.4 1.8-1 3.2-1.8 1.6-.8 2.6-1.4 3.2-1.7.4-.2.7-.2.9 0 1.1 2.1 2.6 5.3 4.6 9.5s3.5 7.4 4.6 9.5c1.2 2.4 2.6 3.6 4.3 3.9 1.4.2 3.5-.3 6.4-1.5 2.6-1.1 4.3-2.1 5.2-3.2 1.1-1.3 1.3-3.1.6-5.3-.8-2.3-2-5.7-3.7-10.3s-2.9-8-3.7-10.3c-.1-.2.2-.5.7-.7.4-.2 1-.4 1.8-.6 1-.2 1.4-.4 1.4-.3.4-.1.9-.3 1.7-.6.7-.3 1.3-.5 1.7-.6.4-.2.7-.1.8.2z"/><path d="m299.2 270.3c0 .1-.1.2-.4.2s-.8 0-1.4-.1c-.6 0-1.1 0-1.4 0s-.9.1-1.6.1c-.7.1-1.2.1-1.6.1s-.7-.2-.9-.5c-.6-1-2.3-4.2-5.6-9.3-.3-.5-1-.8-2.1-.8-.2 0-1.1.1-2.5.3-2.5.4-4 .6-4.4.8-.4.1-.5.5-.4 1.3.2 1.1.5 2.6 1 4.7s.8 3.7 1 4.7c.1.3-.1.5-.4.6s-.8.1-1.5.2-1.2.1-1.5.2-.7.2-1.3.3c-.6.2-1 .3-1.3.4-.4.1-.7 0-.7-.4-.4-1.7-.9-4.2-1.5-7.6s-1.1-5.9-1.5-7.6c-1.1-4.7-2.5-9.7-4.2-15 0-.1-.1-.2-.1-.4-.1-.3.3-.5 1.2-.8 1.8-.4 4.5-1 8-1.7 3.6-.7 6.3-1.1 8.1-1.3 4.7-.5 8.6.1 11.4 1.6 3.2 1.7 4.7 4.2 4.7 7.6 0 2.3-.4 4.1-1.1 5.4-.8 1.4-2.2 2.7-4.3 4.1-.3.2-.5.4-.5.6s1.3 2.2 3.5 6c2.4 4 3.3 6.1 3.3 6.3zm-8.1-20.6c-.2-2.8-1.3-4.6-3.5-5.3-1.6-.6-4.5-.7-8.6-.1-3.3.5-4.9 1-4.9 1.4 0 .8.3 3 1 6.6.3 1.4.5 2.9.8 4.3h.4c.3 0 .9-.1 1.7-.2 1.8-.2 3.7-.5 5.8-.7 5-.6 7.5-2.4 7.3-6z"/><path d="m332.7 246.7c-.1.3-.3.4-.7.3-1.6-.4-4.1-1-7.7-1.8-3.3-.7-6-1.1-7.8-1.3-.7-.1-1.5-.2-2.2-.2-1.4-.1-2.2-.2-2.3-.1-.4.1-.7.6-.7 1.4-.2 1.8-.3 3.7-.5 5.5-.1 1 .2 1.6.7 1.6 1.9.2 4.7.4 8.5.8s6.6.9 8.4 1.3c.4.1.6.3.5.5-.1.3-.2.6-.3 1.1-.2.5-.3.9-.3 1.1-.1.3-.1.7-.2 1.2-.1.6-.2 1-.2 1.2s-.3.2-.6.1c-1.3-.3-3.2-.7-5.7-1.2-2.6-.5-4.5-.8-5.8-.9-2.4-.3-3.7-.4-4.1-.4-.8 0-1.3.3-1.3.7-.1 1.4-.2 3.5-.4 6.2-.1 2.8-.3 4.8-.4 6.2 0 .5-.3.7-.7.6-.3 0-.8-.1-1.5-.2s-1.2-.2-1.5-.2-.7 0-1.3 0-1 0-1.3 0c-.4 0-.6-.2-.6-.5 0-1.7.2-4.3.5-7.7s.4-6 .5-7.7c0-1.6 0-6.7-.2-15.5 0-.1 0-.2 0-.3 0-.3.3-.5.8-.5.2 0 1.5.1 4 .2 3.3.2 6.4.5 9.2.8 3.8.4 8.7 1 14.6 2 .8.1 1.2.5 1.2 1-.1.4-.2 1-.3 1.9-.1 1.7-.2 2.5-.3 2.8z"/><path d="m354 278.7c-.1.2-.3.5-.7.9-.4.5-.6.7-.7.8-.3.5-.8 1.1-1.4 2-.2.2-.5.2-.8.1-.2-.1-.4-.2-.8-.5-1.8-1.1-4.7-2.6-8.7-4.2-1.2-.4-2.9-1-5.3-1.7s-4.2-1.2-5.3-1.5c-.5-.1-.7-.4-.6-.9.4-1.7 1.2-4.1 2.3-7.4s1.9-5.7 2.3-7.4c.5-1.7 1.2-4.9 2.2-9.6.3-1.2.6-3 1.1-5.4 0-.1 0-.2.1-.3.1-.3.4-.4.9-.3 1.4.4 3.6 1 6.4 2s4.9 1.8 6.4 2.3c1.3.5 3.4 1.2 6.1 2.3s4.7 1.9 6 2.6c.9.4 1.3.9 1.2 1.3-.5 2-.8 3.3-1.1 3.7-.2.3-.4.4-.9.2-1.6-.8-4-2-7.3-3.5s-5.8-2.5-7.5-3.1c-1.6-.6-2.7-.7-3.2-.6-.5.2-1 .9-1.4 2.2-.4 1.1-.7 2.2-1.1 3.3-.3.9-.4 1.4-.4 1.6 0 .5.4.9 1.2 1.2.2.1.5.2 1 .3.4.1.7.3.9.3 3.6 1.3 6.8 2.5 9.7 3.7 1.1.5 2.4 1 4 1.6.4.2.5.4.4.6-.2.4-.6 1.1-1.2 1.9-.6.9-1 1.5-1.2 2-.1.2-.4.3-1 0-.2-.1-.9-.5-2.2-1.2-.9-.5-3.1-1.5-6.6-2.9-2.9-1.1-4.8-1.7-5.6-1.9-.7-.2-1.2 0-1.5.5 0-.1-.1.5-.5 1.7-.4 1.1-.7 2.2-1.1 3.3-.5 1.5-.5 2.6-.1 3.1.3.4 1.3.9 2.9 1.5.9.3 1.8.7 2.7 1 1.1.5 4.4 1.5 9.7 3.7.1.1.2.1.4.2.4-.1.5.1.3.5z"/><path d="m378.5 300.9c-.1.1-.2 0-.4-.1-.3-.2-.6-.6-1.1-1.1s-.9-.8-1.1-1.1c-.3-.2-.7-.6-1.3-1s-1-.8-1.3-1c-.3-.3-.4-.6-.4-1 .2-1.2 1-4.7 1.9-10.8.1-.6-.3-1.3-1.1-2-.2-.2-.9-.7-2.1-1.5-2.2-1.5-3.5-2.3-4-2.5-.4-.2-.7.1-1.1.7-.6.9-1.4 2.3-2.4 4.2s-1.8 3.3-2.4 4.2c-.2.3-.4.3-.7.1s-.7-.5-1.3-.9-1-.7-1.3-.9c-.3-.1-.6-.3-1.2-.6-.5-.3-.9-.4-1.2-.6-.4-.2-.5-.5-.3-.8.8-1.5 2.1-3.7 3.9-6.6s3.1-5.1 4-6.6c2.3-4.3 4.6-8.9 6.8-14 0-.1.1-.2.1-.3.1-.3.6-.2 1.4.3 1.6.9 4.1 2.3 7.3 4.2 3.2 2 5.6 3.6 7.1 4.7 4 2.9 6.6 6 7.9 9.2 1.4 3.5.8 6.5-1.4 8.9-1.5 1.7-3 2.7-4.5 3.2-1.6.5-3.6.4-6.1 0-.4-.1-.7 0-.8.1-.1.2-.5 2.5-1.3 6.9-.8 4.3-1.4 6.5-1.6 6.7zm7.6-21.1c1.7-2.2 2.1-4.3.9-6.4-.9-1.6-3.1-3.6-6.6-6-2.9-1.9-4.5-2.7-4.8-2.4-.6.6-1.8 2.5-3.7 5.6-.8 1.3-1.5 2.5-2.3 3.8 0 .1.1.1.3.3.3.2.8.6 1.4 1 1.5 1.1 3.2 2.2 4.9 3.5 4.4 3 7.6 3.4 9.9.6z"/><path d="m220.8 536.2c-1.7 3.2-4.1 5.2-7.3 5.9-3.3.7-6.9-.1-10.8-2.5-.9-.6-2.4-1.6-4.2-2.9s-3.2-2.4-4.2-3c-.5-.4-1-.3-1.3.2-.5.7-1.2 1.7-2 3.1-.9 1.4-1.5 2.4-2 3.1-.2.2-.4.2-.7 0-.4-.3-.9-.7-1.5-1.3-.7-.6-1.2-1-1.5-1.3-.3-.2-.8-.5-1.4-1-.6-.4-1-.7-1.3-1-.4-.3-.5-.7-.2-1 1-1.3 2.7-3.2 5-5.8 2.3-2.5 3.9-4.5 5-5.8 3-3.8 6-7.9 9.1-12.5.1-.1.1-.2.2-.3.2-.3.5-.3.8 0 .7.6 1.8 1.5 3.3 2.6s2.6 2 3.4 2.5c.7.5 1.7 1.1 3 2 1.4.8 2.4 1.5 3.1 1.9 3.2 2 5.2 4.6 6.2 7.8 1.1 3.2.9 6.3-.7 9.3zm-6.2-3c1.2-2 1.5-4 .9-5.9-.5-2-1.9-3.7-4-5.1-.7-.4-1.9-1.2-3.7-2.3-2-1.3-3.1-1.9-3.2-1.8-.2.1-1.8 2.2-4.8 6.3-.4.5-.9 1.3-1.7 2.4-.7 1.1-1.3 1.9-1.7 2.4-.1.1 0 .3.3.6.8.8 3.1 2.6 7.1 5.2 2.3 1.5 4.4 2 6.3 1.6 2-.4 3.4-1.6 4.5-3.4z"/><path d="m243.1 562.7c-.1.2-.3.5-.5.9-.3.5-.6.8-.6.9-.2.5-.6 1.2-1.1 2.2-.2.2-.5.3-.9.2-.2-.1-.5-.2-1.1-.5-2.3-1.1-5.8-2.4-10.6-4.4-1.4-.6-3.4-1.4-6.2-2.5-2.7-1.2-4.8-2.1-6.1-2.8-.6-.3-.8-.6-.6-1 .8-1.5 2-3.8 3.8-6.8s3-5.3 3.8-6.8c.8-1.6 2.1-4.6 4.1-8.9.5-1.1 1.3-2.8 2.2-5.1 0-.1.1-.2.1-.3.1-.3.4-.4.8-.2 1.1.5 2.6 1.3 4.7 2.3s3.7 1.7 4.8 2.2c1 .4 2.6 1 4.7 1.8 2.1.7 3.7 1.2 4.7 1.6.7.2 1.1.6 1 1-.3 2-.5 3.3-.7 3.8-.1.3-.3.4-.7.3-1.4-.5-3.5-1.2-6.2-2.4s-4.7-2.1-6.1-2.7c-1.3-.6-2.2-.8-2.7-.6s-1 .8-1.5 2.1c-.5 1-.9 2.1-1.4 3.1-.4.9-.6 1.4-.6 1.5 0 .5.3.9 1 1.2.2.1.5.2.9.3.4.2.7.3.9.4 3.3 1.4 6.3 2.5 9 3.3 1 .3 2.3.7 3.8 1.1.4.1.5.3.4.6-.2.5-.5 1.2-.9 2.1s-.8 1.6-.9 2.1c-.1.3-.4.3-.9.1-.2-.1-1-.4-2.3-1-.9-.4-3.1-1.3-6.5-2.6-2.9-1.1-4.6-1.9-5.4-2.2-.7-.3-1.2-.1-1.6.4.1-.1-.2.5-.7 1.6-.5 1-.9 2.1-1.4 3.1-.7 1.5-.8 2.5-.4 3.1.3.5 1.4 1.1 3.2 1.9 1 .4 2 .8 3 1.2 1.3.5 4.9 1.8 11 3.4.1 0 .3.1.4.1.3.2.5.5.3.9z"/><path d="m285.8 543.5c-.1 1.8-.4 4.4-.9 8-.4 3.5-.7 6.2-.9 8-.1 1.7-.3 4.2-.6 7.5-.2 3.3-.4 5.8-.6 7.5 0 .5-.3.7-.8.7-.3 0-.7-.1-1.3-.2s-1-.2-1.3-.2-.8-.1-1.5-.1-1.1-.1-1.5-.1-.8-.3-1.2-.9c-3.7-5-9-12.5-14.6-23-.9-1.6-1.3-2.5-1.5-2.7-.2 0-.3.2-.5.9-.6 2.3-1.4 5.8-2.5 10.4s-1.9 8.1-2.4 10.4c-.1.5-.4.7-.8.6-.3-.1-.8-.2-1.5-.5-.7-.2-1.2-.4-1.5-.5s-.9-.2-1.6-.4c-.7-.1-1.2-.3-1.6-.4-.5-.1-.7-.4-.6-.7.5-1.6 1.3-4 2.4-7.3 1.1-3.2 1.9-5.6 2.4-7.3.5-1.8 1.4-5 2.6-9.7.3-1.2.8-3.1 1.3-5.5 0-.1 0-.2.1-.3 0-.2.3-.3.7-.2 1 .3 1.9.5 2.5.6.2 0 .7.1 1.3.2.6 0 1 .1 1.3.2.1 0 .3.3.6.8 2.5 5.6 6.8 14 14.3 24.7.3.4.7.8 1 1.2.2-.6.5-2.1.7-4.4.2-2 .5-5 .9-9 .3-4 .6-7 .9-8.9.1-.5.3-.7.6-.7s.7.1 1.3.2 1 .2 1.3.2.8.1 1.4.1 1.1 0 1.4.1c.5.2.7.4.7.7z"/><path d="m325.6 572.9c.1.3-.1.5-.7.6-.3 0-1-.1-2.2-.4s-1.9-.5-2.3-.7c-3.4 2.3-7.6 3.7-12.7 3.9-5.9.3-10.7-1.4-14.3-4.9-3.4-3.3-4.8-7.3-4.6-11.9.3-4.7 2.1-8.5 5.2-11.7 3.3-3.3 7.2-5 12.1-5.2 2.5-.1 5 .3 7.4 1.1 2.5.9 4.5 2.2 6.2 3.9.3.3.4.5.4.6 0 .2-.5 1-1.6 2.4-1.1 1.3-1.7 2-1.9 2-.1 0-.7-.4-1.7-1.2-1.2-1-2.3-1.8-3.4-2.3-1.6-.8-3.3-1.2-4.9-1.1-3.2.2-5.8 1.4-7.9 3.8-1.9 2.2-2.9 4.8-3 7.8-.1 2.9.9 5.6 3.1 7.8 2.3 2.4 5.4 3.6 9 3.4 3.5-.2 6.7-1.2 9.5-3-.1-.4-.4-1.8-.9-4.3-.4-1.8-.7-3.2-.8-4.3 0-.3.2-.4.6-.5.3 0 .9-.1 1.6-.1s1.2-.1 1.6-.1c.3 0 .9-.1 1.6-.2s1.2-.2 1.6-.3.6.2.7.7.2 1.3.3 2.4.2 1.9.3 2.4c.3 2.2.9 5.1 1.8 8.8-.2.4-.1.5-.1.6z"/><path d="m352.5 534.5c.6 1.7 1.5 4.2 2.5 7.6 1.1 3.4 1.9 5.9 2.5 7.6.2.5.5 1.4.9 2.5s.7 1.9.9 2.4c1.1 3 1.5 5.2 1.2 6.7-.5 2.2-2.2 4.2-5.3 5.9-1.9 1-4.7 2.1-8.5 3.1-6.8 1.8-11.5 1.8-13.9.4-1.9-1.1-3.2-3.7-3.9-7.7-.1-.5-.2-1.3-.4-2.5s-.3-2.1-.5-2.8c-.3-1.8-1-5.1-2-9.8-.2-1.2-.6-3.1-1.2-5.5 0-.2-.1-.3-.1-.4-.1-.3.1-.5.6-.6.7-.1 1.6-.3 2.7-.5 1.3-.2 2.2-.4 2.7-.5.4-.1.6 0 .6.3.5 2.3 1.2 5.7 2.1 10.3s1.6 8.1 2 10.4c.6 2.6 1.6 4.2 3.3 4.8 1.4.5 3.8.4 7.2-.5 3-.8 5.1-1.8 6.2-2.8 1.4-1.3 1.6-3.1.9-5.3-.7-2.3-1.9-5.8-3.5-10.4s-2.7-8.1-3.5-10.4c-.1-.2.1-.5.5-.7.3-.2.8-.3 1.4-.5.7-.2 1.1-.3 1.1-.3.3-.1.7-.3 1.3-.5s1-.4 1.3-.5c.5-.3.8-.2.9.2z"/><path d="m376.8 558.3c.1.3-.1.6-.6.8-.3.2-.8.4-1.6.6-.7.3-1.2.5-1.6.6-.4.2-.9.4-1.5.7-.7.3-1.2.6-1.5.7-.5.2-.8.1-.9-.2-.7-1.6-1.6-4.1-2.7-7.5-1.2-3.3-2.1-5.8-2.8-7.5-.7-1.6-1.7-3.9-3.2-7s-2.5-5.4-3.2-7c-.1-.4 0-.6.3-.8.3-.1.7-.3 1.4-.5.6-.2 1.1-.4 1.4-.5s.7-.3 1.2-.6.9-.5 1.2-.6c.4-.2.7-.1.8.1.7 1.6 1.7 3.9 3.1 7.1 1.3 3.2 2.3 5.6 3 7.1.7 1.6 1.9 4 3.5 7.1 1.8 3.4 3 5.8 3.7 7.4z"/><path d="m395.6 510.1c1.1 1.4 2.7 3.5 4.8 6.4s3.7 5 4.8 6.4c1 1.3 2.6 3.3 4.7 5.9s3.7 4.5 4.7 5.9c.3.4.3.8-.1 1.1-.2.2-.6.5-1.2.8-.5.4-.9.6-1.2.8s-.7.5-1.2 1-.9.8-1.2 1-.8.3-1.5.2c-6.2-1-15.5-2.7-26.9-6.4-1.7-.6-2.7-.9-3-.9-.2.1-.1.4.2 1 1.2 2.1 2.9 5.2 5.3 9.3s4.2 7.2 5.3 9.3c.2.4.2.8-.2 1-.3.2-.8.4-1.4.7-.7.3-1.1.5-1.4.7s-.8.4-1.4.8-1.1.6-1.4.8c-.5.2-.8.2-.9-.1-.8-1.5-1.8-3.8-3.2-7-1.4-3.1-2.4-5.5-3.2-7-.8-1.7-2.4-4.6-4.8-8.9-.6-1.1-1.5-2.8-2.8-5-.1-.1-.1-.2-.2-.3-.1-.2 0-.4.4-.6 1-.5 1.7-.9 2.2-1.3.2-.1.6-.4 1.1-.8.4-.3.8-.6 1.1-.8.1-.1.5 0 1 .2 5.8 2.3 14.7 5.5 27.9 7.9.6.1 1.1.1 1.5.2-.3-.6-1.1-1.8-2.5-3.7-1.2-1.6-3-4-5.5-7.1s-4.3-5.5-5.5-7.1c-.3-.4-.3-.7 0-.9.2-.2.6-.4 1.2-.8.5-.3.9-.6 1.2-.8s.6-.5 1.1-1c.5-.4.9-.8 1.1-1 .6-.2.8-.2 1.1.1z"/><path d="m167.8 411c-.7-.5-1.5-.9-2.2-1.4-2.5-1.5-5.3-2.3-7.8-3.1.6 1.8 1.3 3.7 1.7 5.6.6 4-.5 8.1-4.1 10.4-2.4 1.6-5 1.7-7.8.9-3.9-1.1-7-3.5-9.7-6.4-3.2-3.4-6.7-6.4-10.5-9.1-1.4-1-2.8-2-4.4-3 1-.6 1.9-1.1 2.7-1.7 4.7-3 8.7-6.7 12.5-10.8 2.8-3.1 6.3-5.3 10.6-5.8 5.1-.6 9.4 2.6 10.3 7.8.5 2.8-.1 5.4-1.2 8-.1.3-.2.5-.4.9 3.3-.8 6.5-1.5 9-3.9.4-.4.9-.7 1.4-1.1-.1 4.3-.1 8.5-.1 12.7z"/><path d="m147.1 328.7c.8-1 1.7-2 2.9-2.6 1.7-.8 3.4-.7 5.1.1 3 1.4 4.8 3.8 5.8 6.9 0 .1.1.1.2.2.5-2.1 1.4-3.9 3-5.2 2-1.7 4.3-2.6 6.9-1.7 3.3 1.2 5.8 5.1 3.8 8.9-1.2 2.4-3.7 4.2-6.3 4.8 3.8 1.4 7.6 2 11.7.7-2.3 4-4.5 7.8-6.7 11.8-1.1-4-3.7-6.6-7-9.2.7 1.9.7 3.6.3 5.4-.9 4.1-4.8 6.1-8.7 4.6-4-1.5-5-5.3-3.9-8.7.6-1.8 1.6-3.2 3-4.6-2 .6-3.9.7-5.8.2-2.4-.6-4.4-1.8-5.6-4.1-.8-1.7-.7-3.4-.1-5.1.1-.2.2-.5.2-.7.6-.5.9-1.1 1.2-1.7z"/><path d="m146.3 485.8c-.5-1.2-1-2.4-.9-3.8.1-1.9 1-3.3 2.5-4.4 2.7-1.9 5.6-2.5 8.8-1.9h.3c-1.6-1.4-2.7-3.1-3.2-5.1-.5-2.6-.3-5 1.8-6.9 2.6-2.4 7.2-2.7 9.7.9 1.5 2.3 1.9 5.2 1.2 7.8 3.1-2.7 5.4-5.7 6.3-9.9 2.4 4 4.7 7.7 7.1 11.5-4-.9-7.6.1-11.4 1.7 2 .3 3.5 1.1 4.9 2.3 3.1 2.8 3.1 7.1-.1 9.9s-7 1.8-9.5-.8c-1.3-1.3-2.1-2.9-2.6-4.8-.4 2.1-1.3 3.8-2.6 5.2-1.7 1.8-3.7 3.1-6.2 3-1.9-.1-3.3-1-4.5-2.4-.2-.2-.3-.4-.5-.5-.4-.7-.7-1.2-1.1-1.8z"/><path d="m447.8 329.7c-.8-1-1.7-2-2.9-2.6-1.7-.8-3.4-.7-5 .1-3 1.4-4.8 3.8-5.8 6.9 0 .1-.1.1-.2.2-.5-2.1-1.4-3.9-3-5.2-2-1.7-4.3-2.6-6.9-1.7-3.3 1.2-5.8 5.1-3.8 8.9 1.2 2.4 3.7 4.2 6.2 4.8-3.8 1.4-7.6 2-11.7.7 2.3 4 4.5 7.8 6.7 11.8 1.1-4 3.7-6.6 6.9-9.2-.7 1.9-.7 3.6-.3 5.4.9 4.1 4.8 6.1 8.6 4.6 4-1.5 4.9-5.3 3.9-8.7-.6-1.8-1.5-3.2-3-4.6 2 .6 3.9.7 5.8.2 2.4-.6 4.4-1.8 5.5-4.1.8-1.7.7-3.4.1-5.1-.1-.2-.2-.5-.2-.7-.2-.5-.6-1.1-.9-1.7z"/><path d="m448.6 486.8c.5-1.2 1-2.4.9-3.8-.1-1.9-1-3.3-2.5-4.4-2.6-1.9-5.6-2.5-8.8-1.9-.1 0-.1 0-.3 0 1.6-1.4 2.7-3.1 3.2-5.1.5-2.6.3-5-1.8-6.9-2.6-2.4-7.2-2.7-9.6.9-1.5 2.3-1.9 5.2-1.2 7.8-3.1-2.7-5.4-5.7-6.2-9.9-2.4 4-4.7 7.7-7.1 11.5 4-.9 7.6.1 11.3 1.7-2 .3-3.5 1.1-4.9 2.3-3.1 2.8-3.1 7.1.1 9.9s7 1.8 9.4-.8c1.3-1.3 2.1-2.9 2.6-4.8.4 2.1 1.3 3.8 2.6 5.2 1.7 1.8 3.6 3.1 6.2 3 1.9-.1 3.3-1 4.5-2.4.2-.2.3-.4.5-.5.4-.7.7-1.3 1.1-1.8z"/><path d="m427.3 412c.7-.5 1.5-.9 2.2-1.4 2.5-1.5 5.2-2.3 7.8-3.1-.6 1.8-1.3 3.7-1.6 5.6-.6 4 .5 8.1 4 10.4 2.4 1.6 5 1.7 7.7.9 3.9-1.1 6.9-3.5 9.6-6.4 3.2-3.4 6.7-6.4 10.5-9.1 1.4-1 2.8-2 4.4-3-1-.6-1.8-1.1-2.7-1.7-4.7-3-8.7-6.7-12.5-10.8-2.8-3.1-6.3-5.3-10.5-5.8-5.1-.6-9.3 2.6-10.3 7.8-.5 2.8.1 5.4 1.2 8 .1.3.2.5.4.9-3.3-.8-6.4-1.5-8.9-3.9-.4-.4-.9-.7-1.4-1.1.1 4.3.1 8.5.1 12.7z"/></g><path d="m409.7 440 64 13.5c3.6-14.4 5.5-29.2 5.5-44.3 0-16.6-2.2-32.8-6.6-48.6l-62.8 24.7-.7-1.9 62.9-24.7c-2-6.8-4.3-13.5-7.1-20.1-7.8-18.6-18.6-35.5-32-50.4l-52.2 45.5-1.3-1.5 52.2-45.4c-1.8-1.9-3.6-3.8-5.5-5.7-16.6-16.6-36-29.7-57.6-38.8-22.4-9.5-46.1-14.3-70.6-14.3-24.4 0-48.2 4.8-70.6 14.3-21.6 9.1-41 22.2-57.6 38.8-1.2 1.2-2.3 2.3-3.4 3.5l48.8 46.2-1.4 1.5-48.7-46.2c-14.4 15.5-25.8 33.1-34 52.6-3 7-5.5 14.1-7.5 21.3l67.9 20.6-.6 1.9-67.9-20.5c-4.1 15.3-6.3 31.2-6.3 47.3 0 14 1.6 27.8 4.7 41.2l61.4-13.3.4 2-61.4 13.2c2.3 9.3 5.3 18.5 9.1 27.4 7 16.5 16.2 31.6 27.6 45.3l46.2-41.5 1.3 1.5-46.2 41.5c3.2 3.7 6.5 7.3 10 10.8 16.6 16.6 36 29.7 57.6 38.8 22.4 9.5 46.1 14.3 70.6 14.3 24.4 0 48.2-4.8 70.6-14.3 21.6-9.1 41-22.2 57.6-38.8 4-4 7.8-8.2 11.4-12.5l-53.3-40.2 1.2-1.6 53.3 40.2c10.7-13.2 19.5-27.8 26.1-43.5 3.4-8 6.1-16.1 8.3-24.4l-63.9-13.4z" fill="none"/><path d="m209.2 325.4-43.1-40.8c-.4.4-.8.9-1.2 1.3l43.1 40.8z" fill="#fff"/><path d="m179.7 377.3-56.5-17.3c-.2.5-.3 1.1-.4 1.6l56.4 17.3z" fill="#fff"/><path d="m179 437.8-57.7 12.7c.1.6.3 1.2.4 1.9l57.7-12.7z" fill="#fff"/><path d="m202.6 485.4-44.2 39.8 1.2 1.5 44.2-39.8z" fill="#fff"/><path d="m387.8 327.2 45-39.2c-.4-.4-.8-.9-1.2-1.3l-44.9 39.2z" fill="#fff"/><path d="m416.5 382.6 56-22.2c-.2-.6-.3-1.2-.5-1.7l-56.2 22.3z" fill="#fff"/><path d="m414.9 440.7-.4 1.9 58.6 12.9c.2-.6.3-1.2.5-1.9z" fill="#fff"/><path d="m389.3 488.5 48.2 36.4c.4-.5.8-.9 1.1-1.4l-48.3-36.4z" fill="#fff"/></svg>